<svg xmlns="http://www.w3.org/2000/svg" width="1590" height="527.58" viewBox="0 0 1590 527.58">
  <defs>
    <style>
      .cls-1 {
        fill: #fff;
      }
    </style>
  </defs>
  <title>Scrap Fleet Logo White</title>
  <g id="Warstwa_2" data-name="Warstwa 2">
    <g id="Warstwa_1-2" data-name="Warstwa 1">
      <g>
        <g>
          <g>
            <path class="cls-1" d="M458.31,90.46a56.84,56.84,0,0,0-8.37-6.23,100.23,100.23,0,0,0-14.77-7.72,129.49,129.49,0,0,0-18.89-6.41,83,83,0,0,0-20.68-2.62q-18.72,0-27.9,6.89t-9.19,19.37a19.87,19.87,0,0,0,3.45,12,29.7,29.7,0,0,0,10,8.39,85.41,85.41,0,0,0,16.59,6.57q10,2.92,23.14,6.22,17.07,4.62,31,9.86a84.44,84.44,0,0,1,23.65,13.12,54.18,54.18,0,0,1,14.94,18.89q5.25,11,5.26,27.1,0,18.67-7.05,32a59.51,59.51,0,0,1-19.06,21.48,82.62,82.62,0,0,1-27.57,12,138.83,138.83,0,0,1-32.68,3.76,174.87,174.87,0,0,1-51.86-7.88,160.18,160.18,0,0,1-46-22.31l20-39.06a64.3,64.3,0,0,0,10.67,7.69,163.88,163.88,0,0,0,18.22,9.54,140.84,140.84,0,0,0,23.32,8,105.24,105.24,0,0,0,26.27,3.29q37.44,0,37.43-24A19.75,19.75,0,0,0,434,187.64a36.43,36.43,0,0,0-12.16-9.19,116,116,0,0,0-19.05-7.22q-11.15-3.28-24.93-7.21a215.32,215.32,0,0,1-29.07-10,76.72,76.72,0,0,1-20.52-12.8A48.39,48.39,0,0,1,316,124.12q-4.08-9.69-4.09-23.16,0-17.71,6.55-31.5a64.24,64.24,0,0,1,18.22-23,83,83,0,0,1,27.1-14,112.72,112.72,0,0,1,33.16-4.75q24.64,0,45.31,7.72a168.47,168.47,0,0,1,36.13,18.22Z"/>
            <path class="cls-1" d="M506.56,144.3a120.71,120.71,0,0,1,7.72-42.19,113.2,113.2,0,0,1,58.6-63.86q21.36-10.18,48.6-10.18,32.14,0,55.66,14.13t35,36.77l-34.79,24a59.55,59.55,0,0,0-11.17-16.6A56.36,56.36,0,0,0,652,75.68a64,64,0,0,0-15.76-5.74,75.12,75.12,0,0,0-16.09-1.79q-17.07,0-29.71,6.89a65.55,65.55,0,0,0-21,17.88,78.69,78.69,0,0,0-12.63,25,94,94,0,0,0-4.28,27.74,90.74,90.74,0,0,0,4.94,29.74,78.5,78.5,0,0,0,13.95,25.11,69.61,69.61,0,0,0,21.67,17.4,59.18,59.18,0,0,0,27.74,6.57,73.47,73.47,0,0,0,16.43-2,62.24,62.24,0,0,0,16.24-6.25,61.26,61.26,0,0,0,14.27-11A51.15,51.15,0,0,0,678.29,189l37.09,21.35a70.19,70.19,0,0,1-15.93,23.16,103.47,103.47,0,0,1-23.3,16.89,119.71,119.71,0,0,1-27.76,10.53,121.65,121.65,0,0,1-28.88,3.6q-25,0-45.64-10.5a119,119,0,0,1-35.62-27.44,127,127,0,0,1-23.32-38.39A119.75,119.75,0,0,1,506.56,144.3Z"/>
            <path class="cls-1" d="M745.92,262.51V29.4H849a66.56,66.56,0,0,1,29.71,6.71A76.92,76.92,0,0,1,902.2,53.85a83.68,83.68,0,0,1,15.44,25,75,75,0,0,1,5.59,28.05,77.47,77.47,0,0,1-11.33,41.23,65.13,65.13,0,0,1-30.7,26.75l53.2,87.67H883.5l-47.62-78.16H791.23v78.16Zm45.31-117.86H848a23.89,23.89,0,0,0,11.65-3,29.88,29.88,0,0,0,9.35-8,40.13,40.13,0,0,0,6.25-12,46.47,46.47,0,0,0,2.3-14.78,41.68,41.68,0,0,0-2.65-15.09,38.53,38.53,0,0,0-7.05-12,31.76,31.76,0,0,0-10.18-7.89,26.19,26.19,0,0,0-11.65-2.8H791.23Z"/>
            <path class="cls-1" d="M1027,29.4H1067l88.63,233.11H1109l-21.66-58.12H1006L984.6,262.51H938Zm52.21,143.14L1047,81l-33.48,91.59Z"/>
            <path class="cls-1" d="M1181.28,262.51V29.4h98.84a66.53,66.53,0,0,1,29.71,6.71,77.17,77.17,0,0,1,23.49,17.74,84.44,84.44,0,0,1,15.42,25,75.2,75.2,0,0,1,5.58,28.05,81,81,0,0,1-5.26,28.75,79.78,79.78,0,0,1-14.75,24.77,72.61,72.61,0,0,1-23,17.42,66.29,66.29,0,0,1-29.55,6.55H1226.6v78.16Zm45.32-117.86h52.53c8.31,0,15.29-3.4,20.84-10.18s8.39-16,8.39-27.61A45,45,0,0,0,1305.72,91a38.09,38.09,0,0,0-6.9-12,27.09,27.09,0,0,0-10-7.38,29.33,29.33,0,0,0-11.68-2.48H1226.6Z"/>
          </g>
          <g>
            <path class="cls-1" d="M546.12,527.58V294.48h45.32V487.85H710.29v39.73Z"/>
            <g>
              <polygon class="cls-1" points="783.18 427.12 783.18 390.35 783.18 334.18 896.79 334.18 896.79 294.48 737.86 294.48 737.86 527.58 899.73 527.58 899.73 487.85 783.18 487.85 783.18 427.12"/>
              <polygon class="cls-1" points="980.5 487.85 980.5 427.12 980.5 390.35 980.5 334.18 1094.11 334.18 1094.11 294.48 935.18 294.48 935.18 527.58 1097.05 527.58 1097.05 487.85 980.5 487.85"/>
            </g>
            <path class="cls-1" d="M1306.85,334.18h-74.52v193.4h-45V334.18h-74.52v-39.7h194Z"/>
            <polygon class="cls-1" points="532.44 394.28 402.98 394.28 402.98 334.18 506.16 334.18 506.16 294.48 357.67 294.48 357.67 527.58 402.98 527.58 402.98 431.04 532.44 431.04 532.44 394.28"/>
            <rect class="cls-1" x="605.12" y="394.28" width="568.54" height="36.77"/>
            <rect class="cls-1" x="1246.01" y="394.28" width="290.14" height="36.77"/>
            <polygon class="cls-1" points="0 412.66 0 412.66 343.99 431.04 343.99 394.28 0 412.66"/>
            <polygon class="cls-1" points="1546.63 399.43 1531.94 348.34 1516.81 331.88 1521.26 391.69 1460.18 373.07 1476.08 392.86 1465.04 412.66 1476.08 432.46 1460.18 452.25 1521.26 433.63 1516.81 493.44 1531.94 476.98 1546.63 425.89 1590 412.66 1546.63 399.43"/>
          </g>
        </g>
        <polygon class="cls-1" points="227.44 30.19 238.91 53.43 264.56 57.15 246 75.24 250.38 100.79 227.44 88.73 204.5 100.79 208.89 75.24 190.33 57.15 215.97 53.43 227.44 30.19"/>
        <polygon class="cls-1" points="1409.33 218.2 1420.8 241.44 1446.45 245.17 1427.89 263.26 1432.27 288.8 1409.33 276.74 1386.39 288.8 1390.77 263.26 1372.21 245.17 1397.86 241.44 1409.33 218.2"/>
        <polygon class="cls-1" points="264.56 0 270.39 11.81 283.43 13.71 274 22.9 276.22 35.89 264.56 29.76 252.9 35.89 255.13 22.9 245.69 13.71 258.73 11.81 264.56 0"/>
        <polygon class="cls-1" points="1372.21 182.31 1378.05 194.12 1391.08 196.02 1381.65 205.21 1383.88 218.2 1372.21 212.07 1360.55 218.2 1362.78 205.21 1353.35 196.02 1366.38 194.12 1372.21 182.31"/>
      </g>
    </g>
  </g>
</svg>
