<svg xmlns="http://www.w3.org/2000/svg" width="41.24" height="46.46" viewBox="0 0 41.24 46.46">
  <defs>
    <style>
      .cls-1 {
        fill: #fff;
      }
    </style>
  </defs>
  <title>accuracy</title>
  <g id="Warstwa_2" data-name="Warstwa 2">
    <g id="Warstwa_2-2" data-name="Warstwa 2">
      <g>
        <path class="cls-1" d="M35.53,38.25H5.71L0,28.36,14.91,2.54H26.33L41.24,28.36ZM6.63,36.66h28l4.79-8.3-14-24.23H15.83l-14,24.23Z"/>
        <g>
          <circle class="cls-1" cx="13.88" cy="34.35" r="0.9"/>
          <circle class="cls-1" cx="17.25" cy="34.35" r="0.9"/>
          <circle class="cls-1" cx="23.99" cy="34.35" r="0.9"/>
          <circle class="cls-1" cx="27.35" cy="34.35" r="0.9"/>
        </g>
        <polygon class="cls-1" points="20.62 20.35 19.19 22.83 22.05 22.83 20.62 20.35"/>
        <polygon class="cls-1" points="20.62 37.46 12.8 37.46 13.96 39.66 20.62 39.66 27.28 39.66 28.44 37.46 20.62 37.46"/>
        <g>
          <path class="cls-1" d="M20.62,33.62c-.27,0-.53,0-.8,0v3.88h1.59V33.58C21.15,33.6,20.89,33.62,20.62,33.62Z"/>
          <path class="cls-1" d="M30.18,18.13l3.27-1.89-.8-1.38-3.28,1.9A11,11,0,0,1,30.18,18.13Z"/>
          <path class="cls-1" d="M11.87,16.76l-3.29-1.9-.79,1.38,3.26,1.89A9.93,9.93,0,0,1,11.87,16.76Z"/>
        </g>
        <g>
          <path class="cls-1" d="M11.34,44.16h-.1v.39H11v-.39h-.38V42h.2v2H11V42h.22v2h.1Z"/>
          <path class="cls-1" d="M12.61,44.29a.3.3,0,0,1-.6,0v-2a.3.3,0,1,1,.6,0Zm-.23,0v-2c0-.06,0-.09-.07-.09s-.07,0-.07.09v2c0,.06,0,.09.07.09S12.38,44.36,12.38,44.3Z"/>
          <path class="cls-1" d="M14.92,42.16h-.37V43a.29.29,0,0,1,.19-.08c.11,0,.17.08.17.26v1.08c0,.2-.1.29-.3.29a.26.26,0,0,1-.3-.29v-.93h.23v.93c0,.07,0,.1.07.1s.07,0,.07-.1v-1q0-.09-.06-.09s0,0-.06.05h-.24V42h.6Z"/>
          <path class="cls-1" d="M16.21,44.29a.3.3,0,0,1-.6,0v-2a.3.3,0,1,1,.6,0Zm-.23,0v-2c0-.06,0-.09-.08-.09s-.06,0-.06.09v2q0,.09.06.09S16,44.36,16,44.3Z"/>
          <path class="cls-1" d="M18.51,44.29a.3.3,0,0,1-.6,0v-2a.3.3,0,0,1,.6,0V43h-.23v-.75c0-.06,0-.09-.07-.09s-.07,0-.07.09v1a.23.23,0,0,1,.17-.07.17.17,0,0,1,.14.06.25.25,0,0,1,.06.16Zm-.23,0v-.86c0-.06,0-.09-.07-.09s-.07,0-.07.09v.86c0,.06,0,.09.07.09S18.28,44.36,18.28,44.3Z"/>
          <path class="cls-1" d="M19.82,44.29a.3.3,0,0,1-.6,0v-2a.3.3,0,1,1,.6,0Zm-.23,0v-2c0-.06,0-.09-.07-.09s-.07,0-.07.09v2c0,.06,0,.09.07.09S19.59,44.36,19.59,44.3Z"/>
          <path class="cls-1" d="M21.78,44.55h-.24l.35-2.38h-.4V42h.63v.19Z"/>
          <path class="cls-1" d="M23.39,44.29a.3.3,0,0,1-.6,0v-2a.3.3,0,1,1,.6,0Zm-.23,0v-2c0-.06,0-.09-.07-.09s-.07,0-.07.09v2c0,.06,0,.09.07.09S23.16,44.36,23.16,44.3Z"/>
          <path class="cls-1" d="M25.68,44.29a.3.3,0,0,1-.6,0v-.72a.24.24,0,0,1,.17-.25c-.06,0-.11,0-.13-.08a.31.31,0,0,1,0-.16v-.81a.3.3,0,0,1,.6,0v.8a.23.23,0,0,1-.18.25.22.22,0,0,1,.18.24Zm-.23-1.16v-.89c0-.05,0-.08-.07-.08a.07.07,0,0,0-.07.08v.89c0,.06,0,.09.07.09S25.45,43.19,25.45,43.13Zm0,1.16v-.77c0-.06,0-.09-.07-.09s-.07,0-.07.09v.78c0,.06,0,.09.07.09S25.45,44.36,25.45,44.29Z"/>
          <path class="cls-1" d="M27,44.29a.3.3,0,0,1-.6,0v-2a.3.3,0,1,1,.6,0Zm-.23,0v-2c0-.06,0-.09-.07-.09s-.07,0-.07.09v2c0,.06,0,.09.07.09S26.77,44.36,26.77,44.3Z"/>
          <path class="cls-1" d="M29.29,44.29a.3.3,0,0,1-.6,0V43.6h.23v.69c0,.07,0,.1.07.1s.07,0,.07-.1v-.87a.22.22,0,0,1-.17.07.17.17,0,0,1-.14-.06.23.23,0,0,1-.06-.16v-1a.3.3,0,1,1,.6,0Zm-.23-1.09v-.93c0-.05,0-.08-.07-.08s-.07,0-.07.08v.93c0,.06,0,.09.07.09S29.06,43.26,29.06,43.2Z"/>
          <path class="cls-1" d="M30.61,44.29a.3.3,0,0,1-.6,0v-2a.3.3,0,1,1,.6,0Zm-.23,0v-2c0-.06,0-.09-.08-.09s-.06,0-.06.09v2q0,.09.06.09C30.35,44.39,30.38,44.36,30.38,44.3Z"/>
        </g>
        <polygon class="cls-1" points="20.62 41.33 21.93 39.37 19.31 39.37 20.62 41.33"/>
        <polygon class="cls-1" points="20.62 44.9 19.31 46.46 21.93 46.46 20.62 44.9"/>
        <g>
          <path class="cls-1" d="M17.66.34a2.55,2.55,0,0,1-.07.48c0,.07-.06.27-.13.59,0,.09-.05.21-.07.36h.25v.14H17.2a2.51,2.51,0,0,1,.07-.41c0-.15.08-.36.15-.65a3,3,0,0,0,.07-.53V.21s0-.06,0-.06-.05,0-.05.06V.43h-.17V.23c0-.15.07-.22.23-.22s.17,0,.19.1A.59.59,0,0,1,17.66.34Z"/>
          <path class="cls-1" d="M18.46,1.91h-.17V.28h-.13V.16c.08,0,.13,0,.16-.15h.14Z"/>
          <path class="cls-1" d="M19.44,1.72a.2.2,0,0,1-.22.22A.2.2,0,0,1,19,1.72V1.17h.17v.55c0,.05,0,.07,0,.07s.05,0,.05-.07V1.18c0-.05,0-.08-.1-.1V1c.07,0,.1-.06.1-.1V.21s0-.07-.05-.07,0,0,0,.07V.85H19V.22A.2.2,0,0,1,19.22,0a.19.19,0,0,1,.22.22V.83c0,.11,0,.17-.13.18s.09,0,.1.05a.14.14,0,0,1,0,.11Z"/>
          <path class="cls-1" d="M20.17,1.91H20L20.25.15H20V0h.47V.15Z"/>
          <path class="cls-1" d="M22.09,1.7q0,.21-.24.21h-.2V0h.2q.24,0,.24.21V.79a.17.17,0,0,1-.16.18h0c.11,0,.16.06.16.16ZM21.92.83V.22s0-.08-.06-.08h0V.9h0S21.92.88,21.92.83Zm0,.87V1.11s0-.07-.06-.07h0v.73h0S21.92,1.74,21.92,1.7Z"/>
          <path class="cls-1" d="M23.06,1.72a.22.22,0,1,1-.44,0V.23a.22.22,0,1,1,.44,0V.78h-.17V.22s0-.07-.05-.07-.05,0-.05.07v1.5c0,.05,0,.07.05.07s.05,0,.05-.07V1.06h.17Z"/>
          <path class="cls-1" d="M24,1.7q0,.21-.24.21h-.21V0h.21Q24,0,24,.22Zm-.17,0V.22s0-.08-.07-.08h0V1.77h0A.06.06,0,0,0,23.87,1.7Z"/>
        </g>
        <g>
          <path class="cls-1" d="M19.92,32.63h-.07v.29h-.17v-.29H19.4V31h.15v1.48h.14V31h.16v1.48h.07Z"/>
          <path class="cls-1" d="M20.88,31.35a2.59,2.59,0,0,1-.07.47c0,.08-.06.28-.13.6,0,.09-.05.21-.07.36h.25v.14h-.44a2.74,2.74,0,0,1,.07-.42c0-.14.08-.36.15-.64a3.28,3.28,0,0,0,.07-.53v-.1s0-.06-.05-.06-.05,0-.05.06v.22h-.17v-.2a.2.2,0,0,1,.23-.23.18.18,0,0,1,.19.1A.66.66,0,0,1,20.88,31.35Z"/>
          <path class="cls-1" d="M21.84,32.72a.22.22,0,1,1-.44,0V31.24a.22.22,0,0,1,.44,0Zm-.17,0v-1.5c0-.05,0-.07-.05-.07s-.05,0-.05.07v1.5s0,.07.05.07S21.67,32.77,21.67,32.73Z"/>
        </g>
      </g>
    </g>
  </g>
</svg>
