<svg xmlns="http://www.w3.org/2000/svg" width="42.56" height="33.4" viewBox="0 0 42.56 33.4">
  <defs>
    <style>
      .cls-1 {
        fill: #fff;
      }
    </style>
  </defs>
  <title>autopilot</title>
  <g id="Warstwa_2" data-name="Warstwa 2">
    <g id="Warstwa_2-2" data-name="Warstwa 2">
      <g>
        <path class="cls-1" d="M18.13,6.4h4.64L33,33.4h-5.4l-2.51-6.73H15.69L13.22,33.4H7.82Zm6,16.58L20.45,12.37,16.57,23Z"/>
        <g>
          <polygon class="cls-1" points="16.14 9.54 15.59 11 2.35 11 2.35 9.54 16.14 9.54"/>
          <circle class="cls-1" cx="2.35" cy="10.27" r="2.35"/>
        </g>
        <g>
          <g>
            <polygon class="cls-1" points="8.56 29.38 8.01 30.85 5.13 30.85 5.13 29.38 8.56 29.38"/>
            <polygon class="cls-1" points="24.79 27.86 21.8 30.85 14.94 30.85 15.48 29.38 21.19 29.38 23.18 27.4 24.61 27.4 24.79 27.86"/>
            <polygon class="cls-1" points="40.21 18.87 40.21 20.34 32.31 20.34 29.81 22.84 29.23 21.34 31.7 18.87 40.21 18.87"/>
          </g>
          <circle class="cls-1" cx="5.14" cy="30.11" r="2.35"/>
        </g>
        <polygon class="cls-1" points="32.2 2.35 32.2 8.62 26.55 14.27 25.98 12.76 30.73 8.01 30.73 2.35 32.2 2.35"/>
        <rect class="cls-1" x="7.49" y="18.87" width="8.01" height="1.47"/>
        <polygon class="cls-1" points="23.54 33.4 10.53 33.4 10.53 31.93 22.94 31.93 27.33 27.54 28.37 28.57 23.54 33.4"/>
        <circle class="cls-1" cx="31.46" cy="2.35" r="2.35"/>
        <circle class="cls-1" cx="40.21" cy="19.61" r="2.35"/>
        <circle class="cls-1" cx="7.49" cy="19.61" r="2.35"/>
      </g>
    </g>
  </g>
</svg>
