<svg xmlns="http://www.w3.org/2000/svg" width="156.002" height="232" viewBox="0 0 156.002 232">
  <title>2</title>
  <g>
    <path d="M136.919,7,148,18.083V213.917l-5.541,5.542L136.919,225H19.084l-7.14-7.139L8,213.917V18.083l4.634-4.634L19.084,7H136.919m.414-1H18.67L7,17.668V214.332L18.67,226H137.333c4.557-4.557,7.111-7.112,11.668-11.668V17.668C144.444,13.112,141.89,10.557,137.333,6Z" fill="#fff"/>
    <path d="M140.167,1,155,15.836V216.164L140.167,231H15.836L1,216.164V15.836L15.836,1H140.167m.414-1H15.421L0,15.421V216.579L15.421,232h125.16L156,216.579V15.421L140.581,0Z" fill="#fff"/>
  </g>
</svg>
