<svg xmlns="http://www.w3.org/2000/svg" width="76.167" height="30.11" viewBox="0 0 76.167 30.11">
  <title>something_4</title>
  <g>
    <g>
      <path d="M76.167,13.9V10.928H42.229a9.591,9.591,0,0,0,0,19.182H76.167V27.143h-3V24.25h3V21.965h-3V19.073h3V16.788h-3V13.9Zm-23.777,7.3-2.849,5.837a2.216,2.216,0,0,1-2,1.252,2.253,2.253,0,0,1-.977-.226,2.232,2.232,0,0,1-1.026-2.982l2.849-5.836a2.244,2.244,0,0,1,2-1.253,2.231,2.231,0,0,1,2,3.208Zm8.7-3.21H48.208l-4.549,9.1a2.222,2.222,0,0,1-1.94,1.232h-.054a2.232,2.232,0,0,1-1.945-1.14l-3.443-6.148a2.23,2.23,0,1,1,3.891-2.179l1.386,2.475,3.281-6.564a2.218,2.218,0,0,1,1.995-1.232H61.094a2.23,2.23,0,0,1,0,4.459Z" fill="#fff"/>
      <g>
        <path d="M61.094,14.522H46.83a1.23,1.23,0,0,0-1.1.679L41.6,23.454,39.3,19.331a1.23,1.23,0,1,0-2.146,1.2l3.443,6.148a1.231,1.231,0,0,0,1.073.629h.029a1.23,1.23,0,0,0,1.071-.68l4.825-9.649h13.5a1.23,1.23,0,0,0,0-2.459Z" fill="#7ac943"/>
        <path d="M50.925,19.108a1.229,1.229,0,0,0-1.644.566l-2.849,5.837a1.229,1.229,0,1,0,2.21,1.078l2.849-5.837A1.229,1.229,0,0,0,50.925,19.108Z" fill="#7ac943"/>
      </g>
    </g>
    <path d="M29.535,20.519A12.708,12.708,0,0,1,42.229,7.825H68.916L67.978,0,35.242.59,30.081,10.928,0,13.566v7.35H29.545C29.541,20.784,29.535,20.652,29.535,20.519Z" fill="#ff931e"/>
  </g>
</svg>
