<svg xmlns="http://www.w3.org/2000/svg" width="74.001" height="82.068" viewBox="0 0 74.001 82.068">
  <title>something_8</title>
  <g>
    <path d="M19.339,7.332a2.542,2.542,0,0,0,.76-.115l7.693,7.694c.338-.3.677-.617,1.019-.947.194-.187.379-.373.564-.559L21.716,5.746a2.574,2.574,0,1,0-2.377,1.586Z" fill="#ed1e79"/>
    <path d="M27.614,26.994l-1.551,4.034L.621,33.82,0,42.508l26.241.795c.311-.7.665-1.425,1.066-2.147,3.625-6.525,9.257-9.973,16.287-9.973a16.267,16.267,0,0,1,10.2,3.264A17.686,17.686,0,0,1,59.073,41.4a24.343,24.343,0,0,1,1.074,2.927l1.287.039v-18Z" fill="#ff931e"/>
    <g>
      <path d="M39.906,55.075a8.34,8.34,0,0,1,5.677,2.257L50.21,51.04h7.967s-.311-16.755-14.583-16.755S27.149,51.04,27.149,51.04H41.613Z" fill="#fff"/>
      <path d="M65.933,52.592,56.007,64.528,48.051,61.65A8.361,8.361,0,0,1,45.2,69.911l4.327,2.411-8.1,9.746h24.2L74,54.764Z" fill="#fff"/>
      <circle cx="39.87" cy="63.451" r="5.275" fill="#fff"/>
    </g>
    <path d="M39.085,24.339l-1.828-10.5A27.925,27.925,0,0,0,42.933,1.823,1.558,1.558,0,0,0,41.4,0h0a1.56,1.56,0,0,0-1.536,1.3c-.434,2.513-2.147,8.372-8.893,14.9C24.292,22.651,18,24.44,15.236,24.931a1.733,1.733,0,0,0-1.435,1.74v0h0a1.432,1.432,0,0,0,1.646,1.393,31.154,31.154,0,0,0,13.6-6.135l7.135,2.491Zm-3.132-8.89,1.11,6.374L33.642,17.94C34.486,17.1,35.253,16.267,35.953,15.449Zm-3.435,3.574,3.141,3.566-5.156-1.8Q31.5,19.967,32.518,19.023Z" fill="#fff"/>
  </g>
</svg>
