<svg xmlns="http://www.w3.org/2000/svg" width="77.99" height="32.598" viewBox="0 0 77.99 32.598">
  <title>something_6</title>
  <g>
    <path d="M77.99,7.942V4.2H35.172a12.1,12.1,0,1,0,0,24.2H77.99V24.655H74.208V21.006H77.99V18.124H74.208v-3.65H77.99V11.592H74.208V7.942Zm-30.234,9.09L44.162,24.4a2.551,2.551,0,0,1-4.586-2.237l3.594-7.364a2.567,2.567,0,0,1,2.294-1.433,2.552,2.552,0,0,1,2.292,3.671Zm11.217-4.2H42.553l-5.81,11.621a2.544,2.544,0,0,1-2.215,1.41h-.067a2.554,2.554,0,0,1-2.226-1.3l-4.344-7.757a2.551,2.551,0,0,1,.979-3.473,2.549,2.549,0,0,1,3.473.98l1.99,3.554L38.7,9.143a2.538,2.538,0,0,1,2.282-1.411h18a2.552,2.552,0,0,1,0,5.1Z" fill="#fff"/>
    <g>
      <path d="M17.971,10.982A23.023,23.023,0,0,0,14.173.494,1.189,1.189,0,0,0,12.367.349L12.22.5a1.187,1.187,0,0,0-.13,1.529c1.2,1.675,3.7,6.131,3.572,14.024-.132,7.933-2.931,12.724-4.218,14.515a1.189,1.189,0,0,0,.143,1.553l.154.147h0a1.19,1.19,0,0,0,1.787-.155A25.85,25.85,0,0,0,17.9,20.541l8.1-3.909Zm4.567,4.794L18.254,15.5c0-.987-.036-1.925-.105-2.815ZM18.23,16.8l3.934.249-4.08,1.969C18.153,18.305,18.2,17.566,18.23,16.8Z" fill="#fff"/>
      <path d="M3.644,17.672a2.161,2.161,0,0,0,.379-.513H14.329c.019-.369.033-.746.039-1.132,0-.23,0-.455,0-.679H4.108a2.135,2.135,0,1,0-.464,2.324Z" fill="#ed1e79"/>
    </g>
    <g>
      <path d="M58.973,8.732h-18a1.551,1.551,0,0,0-1.388.858L34.383,20l-2.912-5.2a1.551,1.551,0,0,0-2.707,1.516l4.343,7.757a1.552,1.552,0,0,0,1.354.794H34.5a1.549,1.549,0,0,0,1.351-.857l6.087-12.174H58.973a1.552,1.552,0,0,0,0-3.1Z" fill="#7ac943"/>
      <path d="M46.144,14.519a1.551,1.551,0,0,0-2.075.713L40.475,22.6a1.551,1.551,0,1,0,2.788,1.361l3.594-7.364A1.55,1.55,0,0,0,46.144,14.519Z" fill="#7ac943"/>
    </g>
  </g>
</svg>
