<svg xmlns="http://www.w3.org/2000/svg" width="45.21" height="45.21" viewBox="0 0 45.21 45.21">
  <defs>
    <style>
      .cls-1 {
        fill: #fff;
      }
    </style>
  </defs>
  <title>Combo-FRR-SPD</title>
  <g id="Warstwa_2" data-name="Warstwa 2">
    <g id="Warstwa_2-2" data-name="Warstwa 2">
      <g>
        <g>
          <g>
            <polygon class="cls-1" points="14.08 10.44 6.61 13.32 6.61 16.09 14.08 13.21 21.54 16.09 21.54 13.32 14.08 10.44"/>
            <polygon class="cls-1" points="14.08 9.51 14.39 9.63 20.31 11.92 20.31 10.48 14.08 8.07 7.84 10.48 7.84 11.92 13.77 9.63 14.08 9.51"/>
            <polygon class="cls-1" points="14.08 7.15 14.39 7.27 19.18 9.12 19.18 8.11 14.08 6.14 8.97 8.11 8.97 9.12 13.77 7.27 14.08 7.15"/>
          </g>
          <g>
            <polygon class="cls-1" points="15.59 14.72 14.08 24.02 12.57 14.72 14.08 14.13 15.59 14.72"/>
            <polygon class="cls-1" points="11.46 15.15 10.35 20.29 9.31 15.98 11.46 15.15"/>
            <polygon class="cls-1" points="18.84 15.97 17.81 20.21 16.7 15.15 18.84 15.97"/>
          </g>
        </g>
        <g>
          <path class="cls-1" d="M31.59,23.12a7,7,0,0,0-3,5.76v9.85h0a11,11,0,0,0,6,0V28.88A7.06,7.06,0,0,0,31.59,23.12Zm-.76,15H30.7a5.53,5.53,0,0,1-1.34-.17s0-5.18,0-8.51a8,8,0,0,1,1.89-5.16S30.05,32.34,30.83,38.09Z"/>
          <path class="cls-1" d="M36.8,27.56A4.27,4.27,0,0,0,35,31.06v6h0a6.59,6.59,0,0,0,3.63,0v-6A4.28,4.28,0,0,0,36.8,27.56Zm-.46,9.1h-.08a3.3,3.3,0,0,1-.82-.11s0-3.14,0-5.17a4.79,4.79,0,0,1,1.15-3.13A37.82,37.82,0,0,0,36.34,36.66Z"/>
          <path class="cls-1" d="M25.92,25.9a5.37,5.37,0,0,0-2.27,4.38v7.5h0a8.37,8.37,0,0,0,4.55,0v-7.5A5.35,5.35,0,0,0,25.92,25.9Zm-.58,11.4h-.1a3.92,3.92,0,0,1-1-.14s0-3.94,0-6.47a6.06,6.06,0,0,1,1.44-3.93A47.27,47.27,0,0,0,25.34,37.3Z"/>
        </g>
        <path class="cls-1" d="M14.08,28.16A14.08,14.08,0,1,1,28.16,14.08,14.1,14.1,0,0,1,14.08,28.16ZM14.08,1A13.08,13.08,0,1,0,27.16,14.08,13.1,13.1,0,0,0,14.08,1Z"/>
        <path class="cls-1" d="M31.13,45.21A14.08,14.08,0,1,1,45.21,31.13,14.09,14.09,0,0,1,31.13,45.21Zm0-27.16A13.08,13.08,0,1,0,44.21,31.13,13.1,13.1,0,0,0,31.13,18.05Z"/>
      </g>
    </g>
  </g>
</svg>
