<svg xmlns="http://www.w3.org/2000/svg" width="45.21" height="45.21" viewBox="0 0 45.21 45.21">
  <defs>
    <style>
      .cls-1 {
        fill: #fff;
      }
    </style>
  </defs>
  <title>Combo-ACC-FRR</title>
  <g id="Warstwa_2" data-name="Warstwa 2">
    <g id="Warstwa_2-2" data-name="Warstwa 2">
      <g>
        <g>
          <path class="cls-1" d="M31.59,23.12a7,7,0,0,0-3,5.76v9.85h0a11,11,0,0,0,6,0V28.88A7.06,7.06,0,0,0,31.59,23.12Zm-.76,15H30.7a5.53,5.53,0,0,1-1.34-.17s0-5.18,0-8.51a8,8,0,0,1,1.89-5.16S30.05,32.34,30.83,38.09Z"/>
          <path class="cls-1" d="M36.8,27.56A4.3,4.3,0,0,0,35,31.06v6h0a6.59,6.59,0,0,0,3.63,0v-6A4.28,4.28,0,0,0,36.8,27.56Zm-.46,9.1h-.08a3.3,3.3,0,0,1-.82-.11s0-3.15,0-5.17a4.79,4.79,0,0,1,1.15-3.13A37.82,37.82,0,0,0,36.34,36.66Z"/>
          <path class="cls-1" d="M25.92,25.9a5.37,5.37,0,0,0-2.27,4.38v7.5h0a8.37,8.37,0,0,0,4.55,0v-7.5A5.35,5.35,0,0,0,25.92,25.9Zm-.58,11.39h-.09a3.93,3.93,0,0,1-1-.13s0-3.94,0-6.48a6,6,0,0,1,1.44-3.92A47.21,47.21,0,0,0,25.34,37.29Z"/>
        </g>
        <g>
          <g>
            <path class="cls-1" d="M11.84,21.44c2.1.75,5-.12,7.25-2.35s3.1-5.15,2.35-7.25c-.69,2.16-3.32,4.9-4,5.59S14,20.75,11.84,21.44Z"/>
            <path class="cls-1" d="M13.86,13.85a1.32,1.32,0,1,0-1.87,0A1.33,1.33,0,0,0,13.86,13.85Z"/>
            <path class="cls-1" d="M13.31,15.07l-.6.67c-.29.34-.55.68-.8,1A11.82,11.82,0,0,0,10.54,19a4.79,4.79,0,0,0-.24.69,1,1,0,0,0,.11.92c.62.62,2.74-.49,5.07-2.54Z"/>
            <path class="cls-1" d="M13.93,14.41l2.21,3c.22-.21.44-.4.66-.62s.41-.44.62-.66l-3-2.21-.24.24Z"/>
            <path class="cls-1" d="M19.65,10.29a5.37,5.37,0,0,0-.69.25,11.54,11.54,0,0,0-2.21,1.37c-.33.25-.67.51-1,.81l-.66.59L18,15.48c2.05-2.33,3.15-4.45,2.54-5.07A1,1,0,0,0,19.65,10.29Z"/>
          </g>
          <path class="cls-1" d="M15,11.47a.47.47,0,0,1-.64,0,2.05,2.05,0,0,0-2.9,2.9.45.45,0,0,1-.64.64A3,3,0,0,1,15,10.83.47.47,0,0,1,15,11.47Z"/>
          <path class="cls-1" d="M16.19,10.28a.43.43,0,0,1-.63,0,3.73,3.73,0,0,0-5.28,5.28.45.45,0,0,1-.63.63,4.62,4.62,0,0,1,6.54-6.54A.44.44,0,0,1,16.19,10.28Z"/>
          <path class="cls-1" d="M17.49,9a.45.45,0,0,1-.63,0A5.57,5.57,0,0,0,9,16.86a.44.44,0,0,1,0,.63.45.45,0,0,1-.64,0,6.47,6.47,0,0,1,9.15-9.15A.45.45,0,0,1,17.49,9Z"/>
        </g>
        <path class="cls-1" d="M14.08,28.16A14.08,14.08,0,1,1,28.16,14.08,14.1,14.1,0,0,1,14.08,28.16ZM14.08,1A13.08,13.08,0,1,0,27.16,14.08,13.1,13.1,0,0,0,14.08,1Z"/>
        <path class="cls-1" d="M31.13,45.21A14.08,14.08,0,1,1,45.21,31.13,14.09,14.09,0,0,1,31.13,45.21Zm0-27.16A13.08,13.08,0,1,0,44.21,31.13,13.1,13.1,0,0,0,31.13,18.05Z"/>
      </g>
    </g>
  </g>
</svg>
