<svg xmlns="http://www.w3.org/2000/svg" width="45.21" height="45.21" viewBox="0 0 45.21 45.21">
  <defs>
    <style>
      .cls-1 {
        fill: #fff;
      }
    </style>
  </defs>
  <title>Combo-ACC-SPD</title>
  <g id="Warstwa_2" data-name="Warstwa 2">
    <g id="Warstwa_2-2" data-name="Warstwa 2">
      <g>
        <g>
          <g>
            <path class="cls-1" d="M11.84,21.44c2.1.75,5-.12,7.25-2.35s3.1-5.15,2.35-7.25c-.69,2.16-3.32,4.9-4,5.59S14,20.75,11.84,21.44Z"/>
            <path class="cls-1" d="M13.86,13.85a1.32,1.32,0,1,0-1.87,0A1.33,1.33,0,0,0,13.86,13.85Z"/>
            <path class="cls-1" d="M13.31,15.07l-.6.67c-.29.34-.55.68-.8,1A11.82,11.82,0,0,0,10.54,19a4.79,4.79,0,0,0-.24.69,1,1,0,0,0,.11.92c.62.62,2.74-.49,5.07-2.54Z"/>
            <path class="cls-1" d="M13.93,14.41l2.21,3c.22-.2.44-.4.66-.62s.41-.44.62-.66l-3-2.21-.24.24Z"/>
            <path class="cls-1" d="M19.65,10.29a5.37,5.37,0,0,0-.69.25,11.54,11.54,0,0,0-2.21,1.37c-.33.25-.67.51-1,.81l-.66.59L18,15.48c2.05-2.33,3.15-4.45,2.54-5.07A1,1,0,0,0,19.65,10.29Z"/>
          </g>
          <path class="cls-1" d="M15,11.47a.47.47,0,0,1-.64,0,2.05,2.05,0,0,0-2.9,2.9.45.45,0,0,1-.64.64A3,3,0,0,1,15,10.83.47.47,0,0,1,15,11.47Z"/>
          <path class="cls-1" d="M16.19,10.28a.43.43,0,0,1-.63,0,3.73,3.73,0,0,0-5.28,5.28.45.45,0,0,1-.63.63,4.62,4.62,0,0,1,6.54-6.54A.44.44,0,0,1,16.19,10.28Z"/>
          <path class="cls-1" d="M17.49,9a.44.44,0,0,1-.63,0A5.57,5.57,0,0,0,9,16.86a.44.44,0,0,1,0,.63.45.45,0,0,1-.64,0,6.47,6.47,0,0,1,9.15-9.15A.45.45,0,0,1,17.49,9Z"/>
        </g>
        <g>
          <g>
            <polygon class="cls-1" points="31.13 27.49 23.67 30.38 23.67 33.15 31.13 30.26 38.6 33.15 38.6 30.38 31.13 27.49"/>
            <polygon class="cls-1" points="31.13 26.56 31.44 26.68 37.37 28.98 37.37 27.54 31.13 25.13 24.9 27.54 24.9 28.98 30.82 26.68 31.13 26.56"/>
            <polygon class="cls-1" points="31.13 24.2 31.44 24.32 36.24 26.18 36.24 25.17 31.13 23.19 26.03 25.17 26.03 26.18 30.82 24.32 31.13 24.2"/>
          </g>
          <g>
            <polygon class="cls-1" points="32.64 31.77 31.13 41.07 29.62 31.77 31.13 31.19 32.64 31.77"/>
            <polygon class="cls-1" points="28.51 32.2 27.4 37.34 26.37 33.03 28.51 32.2"/>
            <polygon class="cls-1" points="35.89 33.03 34.86 37.26 33.76 32.2 35.89 33.03"/>
          </g>
        </g>
        <path class="cls-1" d="M14.08,28.16A14.08,14.08,0,1,1,28.16,14.08,14.1,14.1,0,0,1,14.08,28.16ZM14.08,1A13.08,13.08,0,1,0,27.16,14.08,13.1,13.1,0,0,0,14.08,1Z"/>
        <path class="cls-1" d="M31.13,45.21A14.08,14.08,0,1,1,45.21,31.13,14.09,14.09,0,0,1,31.13,45.21Zm0-27.16A13.08,13.08,0,1,0,44.21,31.13,13.1,13.1,0,0,0,31.13,18.05Z"/>
      </g>
    </g>
  </g>
</svg>
