<svg xmlns="http://www.w3.org/2000/svg" width="45.21" height="45.21" viewBox="0 0 45.21 45.21">
  <defs>
    <style>
      .cls-1 {
        fill: #fff;
      }
    </style>
  </defs>
  <title>Combo-FRR-SHD</title>
  <g id="Warstwa_2" data-name="Warstwa 2">
    <g id="Warstwa_2-2" data-name="Warstwa 2">
      <g>
        <g>
          <path class="cls-1" d="M20.22,9.11s-3.9.2-6.14-4.18C11.84,9.31,7.94,9.11,7.94,9.11a29.2,29.2,0,0,0,.5,8.29c1.52,5.49,5.64,5.83,5.64,5.83s4.12-.34,5.64-5.83A29.2,29.2,0,0,0,20.22,9.11Zm-1.85,2.15c0,.23,0,.55,0,.93a4.89,4.89,0,0,0-1.1-1.45,3.55,3.55,0,0,0,.76.14A3.57,3.57,0,0,1,18.37,11.26ZM10,15.72a17.64,17.64,0,0,1-.19-1.91,4.35,4.35,0,0,1,8.64,0,17.4,17.4,0,0,1-.19,1.91,4.35,4.35,0,0,1-8.26,0Zm5.41-6a4.94,4.94,0,0,0-1.28-.18,4.88,4.88,0,0,0-1.28.18,6,6,0,0,0,.54-.57,6,6,0,0,1,.74-.06,6,6,0,0,1,.74.06A6,6,0,0,0,15.36,9.68Zm-4.51,1.06a4.89,4.89,0,0,0-1.1,1.45c0-.38,0-.7,0-.93s.2-.26.31-.38A3.55,3.55,0,0,0,10.85,10.74Zm.24,8a5.81,5.81,0,0,1-.61-1.14,4.81,4.81,0,0,0,7.2,0,6.4,6.4,0,0,1-.61,1.14,5.27,5.27,0,0,1-6,0ZM14.43,8.58l-.35,0-.35,0a6.77,6.77,0,0,0,.35-.6A6.77,6.77,0,0,0,14.43,8.58ZM12,19.75a5.64,5.64,0,0,0,4.12,0,4.11,4.11,0,0,1-2.06,1A4.07,4.07,0,0,1,12,19.75Z"/>
          <circle class="cls-1" cx="14.08" cy="14.35" r="0.88"/>
          <path class="cls-1" d="M14.08,16.29a1.94,1.94,0,1,0-1.94-1.94A1.94,1.94,0,0,0,14.08,16.29Zm0-3.39a1.45,1.45,0,1,1-1.45,1.45A1.45,1.45,0,0,1,14.08,12.9Z"/>
          <path class="cls-1" d="M14.08,17.26a2.92,2.92,0,1,0-2.92-2.91A2.91,2.91,0,0,0,14.08,17.26Zm0-5.33a2.42,2.42,0,1,1-2.42,2.42A2.42,2.42,0,0,1,14.08,11.93Z"/>
          <path class="cls-1" d="M14.08,18.21a3.86,3.86,0,1,0-3.86-3.86A3.86,3.86,0,0,0,14.08,18.21Zm0-7.23a3.37,3.37,0,1,1-3.37,3.37A3.37,3.37,0,0,1,14.08,11Z"/>
        </g>
        <g>
          <path class="cls-1" d="M31.59,23.12a7,7,0,0,0-3,5.76v9.85h0a11,11,0,0,0,6,0V28.88A7.06,7.06,0,0,0,31.59,23.12Zm-.76,15H30.7a5.53,5.53,0,0,1-1.34-.17s0-5.18,0-8.51a7.92,7.92,0,0,1,1.89-5.16S30.05,32.34,30.83,38.09Z"/>
          <path class="cls-1" d="M36.8,27.56A4.27,4.27,0,0,0,35,31.06v6h0a6.59,6.59,0,0,0,3.63,0v-6A4.28,4.28,0,0,0,36.8,27.56Zm-.46,9.1h-.08a3.3,3.3,0,0,1-.82-.11s0-3.14,0-5.17a4.79,4.79,0,0,1,1.15-3.13A37.82,37.82,0,0,0,36.34,36.66Z"/>
          <path class="cls-1" d="M25.92,25.9a5.37,5.37,0,0,0-2.27,4.38v7.5h0a8.37,8.37,0,0,0,4.55,0v-7.5A5.35,5.35,0,0,0,25.92,25.9Zm-.58,11.4h-.1a3.92,3.92,0,0,1-1-.14s0-3.94,0-6.47a6.06,6.06,0,0,1,1.44-3.93A47.27,47.27,0,0,0,25.34,37.3Z"/>
        </g>
        <path class="cls-1" d="M14.08,28.16A14.08,14.08,0,1,1,28.16,14.08,14.1,14.1,0,0,1,14.08,28.16ZM14.08,1A13.08,13.08,0,1,0,27.16,14.08,13.1,13.1,0,0,0,14.08,1Z"/>
        <path class="cls-1" d="M31.13,45.21A14.08,14.08,0,1,1,45.21,31.13,14.09,14.09,0,0,1,31.13,45.21Zm0-27.16A13.08,13.08,0,1,0,44.21,31.13,13.1,13.1,0,0,0,31.13,18.05Z"/>
      </g>
    </g>
  </g>
</svg>
