<svg xmlns="http://www.w3.org/2000/svg" width="85.808" height="28.258" viewBox="0 0 85.808 28.258">
  <title>something_2</title>
  <g>
    <g>
      <path d="M37.4,6.55v-3.4H10.976a10.976,10.976,0,1,0,0,21.951H37.4v-3.4h-3.43V18.4H37.4V15.784h-3.43v-3.31H37.4V9.86h-3.43V6.55ZM22.473,14.835l-3.26,6.679A2.407,2.407,0,0,1,14.887,19.4l3.259-6.679a2.422,2.422,0,0,1,2.164-1.353,2.409,2.409,0,0,1,2.163,3.464Zm3.885-3.755h-8.63L12.483,21.569a2.4,2.4,0,0,1-2.1,1.331H10.33a2.409,2.409,0,0,1-2.1-1.231L4.29,14.634a2.408,2.408,0,0,1,4.2-2.353l1.719,3.071L14.087,7.6A2.4,2.4,0,0,1,16.24,6.266H26.358a2.407,2.407,0,1,1,0,4.814Z" fill="#fff"/>
      <g>
        <path d="M26.358,7.266H16.24a1.407,1.407,0,0,0-1.258.778L10.26,17.487,7.618,12.77a1.407,1.407,0,0,0-2.455,1.375L9.1,21.181a1.406,1.406,0,0,0,1.227.719h.033a1.407,1.407,0,0,0,1.226-.778L17.11,10.08h9.248a1.407,1.407,0,1,0,0-2.814Z" fill="#7ac943"/>
        <path d="M20.927,12.514a1.408,1.408,0,0,0-1.882.648l-3.26,6.679a1.407,1.407,0,1,0,2.529,1.234l3.26-6.679A1.407,1.407,0,0,0,20.927,12.514Z" fill="#7ac943"/>
      </g>
    </g>
    <g>
      <path d="M58.524,19.362c2.3.718,3.167-1.461,3.979-3.248s4.466.487,4.3-1.38-2.918-5.522-4.22-4.06-3.9,3.654-4.225,1.624S54.383,9.05,53.733,11s-2.436,3.249-3.491,2.68c-1.119-.6-3.289-1.218-2.376.569s3.323,3.87,5.3,2.923c1.867-.9,3.329-2.761,3.492-.731A3.22,3.22,0,0,0,58.524,19.362Z" fill="#3fa9f5"/>
      <path d="M70.5,0c-3.683,0-6.074,3.476-6.942,4.991a1.832,1.832,0,0,0-.366-.038,1.811,1.811,0,1,0,1.733,1.371C65.871,5.282,68.2,2.959,70.1,3.086c2.436.162,7.877,2.355,7.877,2.355a18.465,18.465,0,0,0-6.09,3.735,7.839,7.839,0,0,1,1.867,4.953,7.839,7.839,0,0,1-1.867,4.953,18.478,18.478,0,0,0,6.09,3.736S72.531,25.01,70.1,25.173c-1.894.126-4.224-2.2-5.169-3.239a1.784,1.784,0,1,0-1.733,1.371,1.832,1.832,0,0,0,.366-.038c.868,1.515,3.259,4.991,6.942,4.991a39.933,39.933,0,0,0,8.892-1.447v1.447l6.415-2.375V23.508L82.6,24.1V21.721l3.208-.311V18.243H82.6V15.726h3.208V12.532H82.6V10.015h3.208V6.848L82.6,6.537V4.162l3.208.588V2.375L79.393,0V1.447A39.991,39.991,0,0,0,70.5,0Z" fill="#fff"/>
      <path d="M44.936,28.258c3.683,0,6.075-3.476,6.943-4.991a1.83,1.83,0,0,0,.365.038,1.787,1.787,0,1,0-1.786-1.787,1.731,1.731,0,0,0,.054.416c-.946,1.042-3.275,3.365-5.17,3.239-2.436-.163-7.876-2.355-7.876-2.355a18.478,18.478,0,0,0,6.09-3.736,7.837,7.837,0,0,1-1.868-4.953,7.837,7.837,0,0,1,1.868-4.953,18.465,18.465,0,0,0-6.09-3.735s5.44-2.193,7.876-2.355c1.9-.127,4.224,2.2,5.17,3.238a1.731,1.731,0,0,0-.054.416,1.787,1.787,0,1,0,1.786-1.787,1.83,1.83,0,0,0-.365.038C51.011,3.476,48.619,0,44.936,0a39.992,39.992,0,0,0-8.891,1.447V0L29.63,2.375V4.75l3.207-.588V6.537l-3.207.311v3.167h3.207v2.517H29.63v3.194h3.207v2.517H29.63V21.41l3.207.311V24.1l-3.207-.589v2.375l6.415,2.375V26.811A39.934,39.934,0,0,0,44.936,28.258Z" fill="#fff"/>
    </g>
  </g>
</svg>
