<svg xmlns="http://www.w3.org/2000/svg" width="90.576" height="65.139" viewBox="0 0 90.576 65.139">
  <title>something_1</title>
  <g>
    <path d="M71.443,4.424,69.674,0H36.717L28.2,8.4,0,9.29v6.967l20.349.774,1.327,8.074,6.083.964c-.628-6.237.3-11.14,2.772-14.582,1.735-2.418,5.158-5.3,11.605-5.3h29.4l.089,0a21.2,21.2,0,0,1,8.018,2.332c3.832,2.025,8.4,6.143,8.4,14.258a31.856,31.856,0,0,1-.215,3.8l2.753-.037V4.424Z" fill="#ff931e"/>
    <path d="M57.767,25.758c1.481.619,2.035-1.261,2.557-2.8s2.87.42,2.766-1.191-1.875-4.763-2.712-3.5-2.507,3.152-2.716,1.4-2.557-2.8-2.975-1.121-1.566,2.8-2.244,2.312c-.719-.52-2.114-1.051-1.527.49s2.136,3.339,3.406,2.522c1.2-.772,2.14-2.382,2.244-.631S57.513,25.652,57.767,25.758Z" fill="#3fa9f5"/>
    <g>
      <path d="M48.467,57.376l4.949,7.763H70.005L55.773,50.522A8.036,8.036,0,0,1,48.467,57.376Z" fill="#fff"/>
      <circle cx="47.832" cy="49.38" r="4.921" fill="#fff"/>
      <path d="M71.443,9.29H42.136c-18.027,0-9.4,25.547-9.4,25.547H52.358L47.9,41.357a8.031,8.031,0,0,1,7.023,4.278l5.161-10.8h18.1s6.746.663,6.746-12.055S71.443,9.29,71.443,9.29ZM71.695,26a10.309,10.309,0,0,1-3.68,4.856H45.454a10.2,10.2,0,0,1-3.43-4.81l6.892-3.979L42,18.072a12.346,12.346,0,0,1,3.456-5.354H68.125a10.348,10.348,0,0,1,3.746,5.315l-6.987,4.033Z" fill="#fff"/>
    </g>
  </g>
</svg>
