<svg xmlns="http://www.w3.org/2000/svg" width="68.714" height="77.729" viewBox="0 0 68.714 77.729">
  <title>something</title>
  <g>
    <path d="M11.027,14.583a5.119,5.119,0,0,0,1.51-.227L30.014,31.832c.659-.594,1.321-1.209,1.986-1.852.4-.384.781-.765,1.159-1.146l-17.4-17.4a5.12,5.12,0,1,0-4.727,3.154Z" fill="#ed1e79"/>
    <path d="M63.258,48.385l-.477.748L60.272,33.692,46.149,29.035l.516-1.5c8.1-10.549,10.584-19.585,11.344-24.225A2.85,2.85,0,0,0,55.193,0h-.5A2.846,2.846,0,0,0,51.88,2.372c-.8,4.877-4.115,16.677-17.723,29.838C20.48,45.439,7.611,48.816,2.391,49.67A2.851,2.851,0,0,0,0,52.547l.011.51a2.852,2.852,0,0,0,3.293,2.768c5.021-.786,15.3-3.415,27.031-12.2l1.335-.426,4.492,17.975,18,1.466-9.63,15.089h20.5L68.714,49.2Zm-26.2-6.9,5.407-1.724,1.888-5.5,10.609,4.116L57.377,50.75l-5.786-.485,2.358,5.765L40.476,54.8Z" fill="#fff"/>
    <path d="M45.145,47.983c.667,1.269,1.943.715,3.034.306s1.67,2.08,2.386,1.228,1.093-3.543-.067-3.476-3.171-.1-2.455-1.092-.307-3.034-1.4-2.489-2.386.341-2.59-.34c-.217-.723-.87-1.892-1.236-.759s-.23,3.02,1,3.452c1.159.407,2.557.238,1.773,1.158A1.915,1.915,0,0,0,45.145,47.983Z" fill="#3fa9f5"/>
  </g>
</svg>
