<svg xmlns="http://www.w3.org/2000/svg" width="45.21" height="45.21" viewBox="0 0 45.21 45.21">
  <defs>
    <style>
      .cls-1 {
        fill: #fff;
      }
    </style>
  </defs>
  <title>Combo-SPD-SHD</title>
  <g id="Warstwa_2" data-name="Warstwa 2">
    <g id="Warstwa_2-2" data-name="Warstwa 2">
      <g>
        <g>
          <g>
            <polygon class="cls-1" points="14.08 10.29 6.61 13.18 6.61 15.95 14.08 13.06 21.54 15.95 21.54 13.18 14.08 10.29"/>
            <polygon class="cls-1" points="14.08 9.36 14.39 9.48 20.31 11.77 20.31 10.34 14.08 7.93 7.84 10.34 7.84 11.77 13.77 9.48 14.08 9.36"/>
            <polygon class="cls-1" points="14.08 7 14.39 7.12 19.18 8.97 19.18 7.97 14.08 5.99 8.97 7.97 8.97 8.97 13.77 7.12 14.08 7"/>
          </g>
          <g>
            <polygon class="cls-1" points="15.59 14.57 14.08 23.87 12.57 14.57 14.08 13.98 15.59 14.57"/>
            <polygon class="cls-1" points="11.46 15 10.35 20.14 9.31 15.83 11.46 15"/>
            <polygon class="cls-1" points="18.84 15.82 17.81 20.06 16.7 15 18.84 15.82"/>
          </g>
        </g>
        <g>
          <path class="cls-1" d="M37.27,26.16s-3.9.2-6.14-4.18C28.89,26.36,25,26.16,25,26.16a29,29,0,0,0,.49,8.29c1.53,5.5,5.64,5.83,5.64,5.83s4.12-.33,5.64-5.83A29.2,29.2,0,0,0,37.27,26.16Zm-1.84,2.15c0,.23,0,.55,0,.93a4.72,4.72,0,0,0-1.1-1.44,4.09,4.09,0,0,0,.77.13ZM27,32.78a15.58,15.58,0,0,1-.18-1.92,4.35,4.35,0,0,1,8.63,0,15.6,15.6,0,0,1-.19,1.92,4.35,4.35,0,0,1-8.26,0Zm5.41-6.05a4.83,4.83,0,0,0-1.28-.17,4.94,4.94,0,0,0-1.28.17,4.24,4.24,0,0,0,.54-.57,5.5,5.5,0,0,1,1.48,0A5,5,0,0,0,32.41,26.73Zm-4.5,1.07a4.75,4.75,0,0,0-1.11,1.44c0-.38,0-.7,0-.93s.19-.25.3-.38A4.36,4.36,0,0,0,27.91,27.8Zm.23,8a6.07,6.07,0,0,1-.61-1.14,4.81,4.81,0,0,0,7.2,0,6.06,6.06,0,0,1-.6,1.14,5.28,5.28,0,0,1-3,.93A5.22,5.22,0,0,1,28.14,35.77Zm3.34-10.14-.35,0-.34,0a5.58,5.58,0,0,0,.34-.6A5.59,5.59,0,0,0,31.48,25.63ZM29.07,36.81a5.77,5.77,0,0,0,4.12,0,4.1,4.1,0,0,1-2.06,1A4.14,4.14,0,0,1,29.07,36.81Z"/>
          <circle class="cls-1" cx="31.13" cy="31.4" r="0.88"/>
          <path class="cls-1" d="M31.13,33.35a1.95,1.95,0,1,0-1.94-2A2,2,0,0,0,31.13,33.35Zm0-3.4a1.45,1.45,0,1,1-1.45,1.45A1.45,1.45,0,0,1,31.13,30Z"/>
          <path class="cls-1" d="M31.13,34.32a2.92,2.92,0,1,0-2.91-2.92A2.92,2.92,0,0,0,31.13,34.32Zm0-5.34a2.42,2.42,0,1,1-2.42,2.42A2.42,2.42,0,0,1,31.13,29Z"/>
          <path class="cls-1" d="M31.13,35.26a3.86,3.86,0,1,0-3.86-3.86A3.86,3.86,0,0,0,31.13,35.26Zm0-7.22a3.37,3.37,0,1,1-3.36,3.36A3.37,3.37,0,0,1,31.13,28Z"/>
        </g>
        <path class="cls-1" d="M14.08,28.16A14.08,14.08,0,1,1,28.16,14.08,14.1,14.1,0,0,1,14.08,28.16ZM14.08,1A13.08,13.08,0,1,0,27.16,14.08,13.1,13.1,0,0,0,14.08,1Z"/>
        <path class="cls-1" d="M31.13,45.21A14.08,14.08,0,1,1,45.21,31.13,14.09,14.09,0,0,1,31.13,45.21Zm0-27.16A13.08,13.08,0,1,0,44.21,31.13,13.1,13.1,0,0,0,31.13,18.05Z"/>
      </g>
    </g>
  </g>
</svg>
