<svg xmlns="http://www.w3.org/2000/svg" width="37.77" height="46.17" viewBox="0 0 37.77 46.17">
  <defs>
    <style>
      .cls-1 {
        fill: #fff;
      }
    </style>
  </defs>
  <title>firerate</title>
  <g id="Warstwa_2" data-name="Warstwa 2">
    <g id="Warstwa_2-2" data-name="Warstwa 2">
      <g>
        <g>
          <path class="cls-1" d="M33.67,17.19,19.49,5.7l3.42-1.16S15-3.37,4.21,1.69c-5.06,10.8,2.85,18.7,2.85,18.7L8.22,17,19.71,31.15l.09-7.23,18,11.33-11.33-18ZM23.22,20.7l-7.41-1.5-.43,2.36L7.53,12.39l-.78,2.49C4.8,10.58,5,6.16,6.24,3.72c2.44-1.24,6.86-1.44,11.16.51L14.91,5l9.16,7.86-2.35.42Z"/>
          <path class="cls-1" d="M7.33,4.82a8.59,8.59,0,0,0,2.39,7.52l4,4a13.5,13.5,0,0,0,5.14-5.14l-4-4A8.57,8.57,0,0,0,7.33,4.82ZM15,14a7,7,0,0,1-1.31,1l-2.9-2.84A9.64,9.64,0,0,1,8,6.11s1.5,3.51,7.13,7.79Z"/>
        </g>
        <g>
          <path class="cls-1" d="M16.44,36.64,9,30.58l1.8-.61A8.92,8.92,0,0,0,.89,28.46,8.9,8.9,0,0,0,2.4,38.33L3,36.53,9.07,44l0-3.81,9.48,6-6-9.48Zm-5.52,1.85L7,37.7,6.79,39,2.65,34.11l-.42,1.31A7.26,7.26,0,0,1,2,29.54a7.28,7.28,0,0,1,5.89.26l-1.31.42,4.83,4.14-1.24.22Z"/>
          <path class="cls-1" d="M2.54,30.11a4.53,4.53,0,0,0,1.26,4L5.92,36.2a6.92,6.92,0,0,0,2.71-2.71L6.51,31.37A4.53,4.53,0,0,0,2.54,30.11Zm4,4.85a3.29,3.29,0,0,1-.69.54L4.37,34a5,5,0,0,1-1.49-3.2,11.87,11.87,0,0,0,3.76,4.1Z"/>
        </g>
      </g>
    </g>
  </g>
</svg>
