<svg xmlns="http://www.w3.org/2000/svg" width="58.047" height="65.778" viewBox="0 0 58.047 65.778">
  <title>something_7</title>
  <g>
    <path d="M46.665,27.533c8.1-10.549,10.584-19.585,11.344-24.225A2.85,2.85,0,0,0,55.193,0h-.5A2.846,2.846,0,0,0,51.88,2.372c-.8,4.877-4.115,16.677-17.723,29.838C20.48,45.439,7.611,48.816,2.391,49.67A2.851,2.851,0,0,0,0,52.547l.011.51h0a2.852,2.852,0,0,0,3.293,2.768c5.021-.786,15.3-3.415,27.031-12.2l20.371,7.113ZM46.28,43.406l-6.8-7.723q2.516-2.51,4.6-4.954Zm-9.041-5.568,6.249,7.093L33.231,41.349Q35.217,39.717,37.239,37.838Z" fill="#fff"/>
    <polygon points="30.729 65.778 48.415 65.778 54.931 38.784 50.587 35.682 30.729 65.778" fill="#fff"/>
    <path d="M11.027,14.583a5.119,5.119,0,0,0,1.51-.227L30.014,31.832c.659-.594,1.321-1.209,1.986-1.852.4-.384.781-.765,1.159-1.146l-17.4-17.4a5.12,5.12,0,1,0-4.727,3.154Z" fill="#ed1e79"/>
  </g>
</svg>
