<svg xmlns="http://www.w3.org/2000/svg" width="27.16" height="29.06" viewBox="0 0 27.16 29.06">
  <defs>
    <style>
      .cls-1 {
        fill: #fff;
      }
    </style>
  </defs>
  <title>Optimized-FRR</title>
  <g id="Warstwa_2" data-name="Warstwa 2">
    <g id="Warstwa_2-2" data-name="Warstwa 2">
      <g>
        <path class="cls-1" d="M14.41,0A12.79,12.79,0,0,0,9,10.44V28.31H9a20,20,0,0,0,10.84,0V10.44A12.77,12.77,0,0,0,14.41,0ZM13,27.16H12.8a9.5,9.5,0,0,1-2.44-.32s0-9.39-.07-15.43a14.37,14.37,0,0,1,3.43-9.36S11.61,16.71,13,27.16Z"/>
        <path class="cls-1" d="M23.87,8.05a7.75,7.75,0,0,0-3.3,6.35V25.25h0a12.09,12.09,0,0,0,6.59,0V14.4A7.77,7.77,0,0,0,23.87,8.05ZM23,24.55h-.14a5.69,5.69,0,0,1-1.49-.19s0-5.71,0-9.38a8.74,8.74,0,0,1,2.09-5.69S22.16,18.21,23,24.55Z"/>
        <path class="cls-1" d="M4.13,5A9.72,9.72,0,0,0,0,13V26.59H0a15.21,15.21,0,0,0,8.25,0V13A9.74,9.74,0,0,0,4.13,5ZM3.07,25.71H2.9A7.24,7.24,0,0,1,1,25.47S1,18.31,1,13.72A10.92,10.92,0,0,1,3.6,6.59S2,17.76,3.07,25.71Z"/>
      </g>
    </g>
  </g>
</svg>
