<svg xmlns="http://www.w3.org/2000/svg" width="22.62" height="33.2" viewBox="0 0 22.62 33.2">
  <defs>
    <style>
      .cls-1 {
        fill: #fff;
      }
    </style>
  </defs>
  <title>Optimized-SHD</title>
  <g id="Warstwa_2" data-name="Warstwa 2">
    <g id="Warstwa_2-2" data-name="Warstwa 2">
      <g>
        <path class="cls-1" d="M22.44,7.58S15.38,8,11.31,0C7.24,8,.18,7.58.18,7.58s-.77,9,.9,15c2.76,10,10.23,10.58,10.23,10.58s7.47-.61,10.23-10.58C23.21,16.6,22.44,7.58,22.44,7.58ZM19.1,11.49c0,.41,0,1,.07,1.68a8.73,8.73,0,0,0-2-2.62,7.55,7.55,0,0,0,1.4.24C18.75,11,18.93,11.25,19.1,11.49ZM3.82,19.58a29.11,29.11,0,0,1-.34-3.47,7.89,7.89,0,0,1,15.66,0,29.11,29.11,0,0,1-.34,3.47,7.89,7.89,0,0,1-15,0Zm9.82-11A8.64,8.64,0,0,0,9,8.62a9,9,0,0,0,1-1,9.83,9.83,0,0,1,1.34-.1,9.83,9.83,0,0,1,1.34.1A9,9,0,0,0,13.64,8.62ZM5.46,10.55a8.73,8.73,0,0,0-2,2.62c0-.69,0-1.27.07-1.68a8.88,8.88,0,0,1,.55-.7A7.61,7.61,0,0,0,5.46,10.55ZM5.88,25A11.32,11.32,0,0,1,4.77,23a8.76,8.76,0,0,0,13.08,0A11.32,11.32,0,0,1,16.74,25,9.57,9.57,0,0,1,5.88,25ZM11.94,6.62q-.31,0-.63,0t-.63,0a12.27,12.27,0,0,0,.63-1.08A12.27,12.27,0,0,0,11.94,6.62ZM7.57,26.89a10.32,10.32,0,0,0,3.74.71,10.53,10.53,0,0,0,3.74-.7,7.46,7.46,0,0,1-3.74,1.74A7.43,7.43,0,0,1,7.57,26.89Z"/>
        <circle class="cls-1" cx="11.31" cy="17.09" r="1.59"/>
        <path class="cls-1" d="M11.31,20.62a3.53,3.53,0,1,0-3.53-3.53A3.54,3.54,0,0,0,11.31,20.62Zm0-6.16a2.63,2.63,0,1,1-2.63,2.63A2.63,2.63,0,0,1,11.31,14.46Z"/>
        <path class="cls-1" d="M11.31,22.38A5.29,5.29,0,1,0,6,17.09,5.29,5.29,0,0,0,11.31,22.38Zm0-9.68a4.39,4.39,0,1,1-4.39,4.39A4.4,4.4,0,0,1,11.31,12.7Z"/>
        <path class="cls-1" d="M11.31,24.09a7,7,0,1,0-7-7A7,7,0,0,0,11.31,24.09Zm0-13.11A6.11,6.11,0,1,1,5.2,17.09,6.12,6.12,0,0,1,11.31,11Z"/>
      </g>
    </g>
  </g>
</svg>
