<svg xmlns="http://www.w3.org/2000/svg" width="54.919" height="24.201" viewBox="0 0 54.919 24.201">
  <title>something_5</title>
  <g>
    <path d="M54.919,3.744V0H12.1a12.1,12.1,0,1,0,0,24.2H54.919V20.457H51.137V16.808h3.782V13.925H51.137V10.276h3.782V7.394H51.137V3.744Zm-30.234,9.09L21.091,20.2a2.551,2.551,0,1,1-4.586-2.238L20.1,10.6a2.566,2.566,0,0,1,2.294-1.433,2.552,2.552,0,0,1,2.292,3.671ZM35.9,8.637H19.482L13.671,20.258a2.54,2.54,0,0,1-2.215,1.409h-.067a2.553,2.553,0,0,1-2.225-1.3L4.82,12.607a2.551,2.551,0,1,1,4.452-2.493l1.99,3.553,4.361-8.722a2.538,2.538,0,0,1,2.282-1.411h18a2.552,2.552,0,1,1,0,5.1Z" fill="#fff"/>
    <g>
      <path d="M35.9,4.534h-18a1.551,1.551,0,0,0-1.387.858L11.312,15.8,8.4,10.6a1.551,1.551,0,0,0-2.707,1.516l4.344,7.757a1.551,1.551,0,0,0,1.353.793h.037a1.55,1.55,0,0,0,1.351-.857L18.864,7.637H35.9a1.552,1.552,0,1,0,0-3.1Z" fill="#7ac943"/>
      <path d="M23.073,10.321A1.55,1.55,0,0,0,21,11.034L17.4,18.4a1.551,1.551,0,1,0,2.788,1.361L23.786,12.4A1.551,1.551,0,0,0,23.073,10.321Z" fill="#7ac943"/>
    </g>
  </g>
</svg>
