<svg xmlns="http://www.w3.org/2000/svg" width="35.337" height="49.748" viewBox="0 0 35.337 49.748">
  <title>something_3</title>
  <g>
    <path d="M11.124,13.6c-.9,2.882,1.828,3.96,4.062,4.975s-.609,5.585,1.726,5.382,6.905-3.649,5.078-5.277-4.57-4.877-2.031-5.283,4.061-4.976,1.624-5.788-4.061-3.047-3.351-4.367c.754-1.4,1.524-4.113-.71-2.97S12.681,4.429,13.866,6.9c1.119,2.334,3.453,4.163.914,4.366A4.03,4.03,0,0,0,11.124,13.6Z" fill="#3fa9f5"/>
    <path d="M35.337,30.608c0-4.606-4.347-7.6-6.242-8.682a2.267,2.267,0,1,0-1.666,1.71c1.3,1.182,4.207,4.1,4.049,6.464-.2,3.046-2.944,9.849-2.944,9.849a23.106,23.106,0,0,0-4.671-7.615c-2.336,2.335-6.195,2.335-6.195,2.335s-3.858,0-6.194-2.335A23.106,23.106,0,0,0,6.8,39.949s-2.741-6.8-2.944-9.849c-.158-2.369,2.746-5.282,4.049-6.464a2.231,2.231,0,1,0-1.666-1.71C4.346,23.011,0,26,0,30.608A50.018,50.018,0,0,0,1.809,41.726H0l2.97,8.022H5.94L5.2,45.737h2.97l.389,4.011h3.961V45.737h3.147v4.011h3.994V45.737h3.148v4.011h3.96l.39-4.011h2.97L29.4,49.748h2.97l2.97-8.022H33.528A50.018,50.018,0,0,0,35.337,30.608Z" fill="#fff"/>
  </g>
</svg>
