<svg xmlns="http://www.w3.org/2000/svg" width="74.156" height="60.814" viewBox="0 0 74.156 60.814">
  <title>something_9</title>
  <g>
    <path d="M33.2,0,30.1,4.034,1.862,2.482,0,11.48,27.218,15.5a23.1,23.1,0,0,1,2.212-2.625c3.53-3.611,10.118-7.915,21.455-7.915,6.985,0,12.24,2.091,15.62,6.214a18.437,18.437,0,0,1,3.847,10.7l1.011.15L74.156,1.551Z" fill="#ff931e"/>
    <path d="M50.885,8.067C31.028,8.067,27.3,22.03,27.3,22.03l16.544,1.938-9.061,8.225a10.584,10.584,0,0,1,7.261,5.671L54.284,25.191l12.735,1.493S70.743,8.067,50.885,8.067Z" fill="#fff"/>
    <path d="M32.579,53.057a10.5,10.5,0,0,1-3.9-.75l2.659,8.507h21.1L42.083,47.084A10.563,10.563,0,0,1,32.579,53.057Z" fill="#fff"/>
    <circle cx="32.734" cy="42.353" r="6.671" fill="#fff"/>
  </g>
</svg>
