<svg xmlns="http://www.w3.org/2000/svg" width="27.67" height="27.67" viewBox="0 0 27.67 27.67">
  <defs>
    <style>
      .cls-1 {
        fill: #fff;
      }
    </style>
  </defs>
  <title>Optimized-ACC</title>
  <g id="Warstwa_2" data-name="Warstwa 2">
    <g id="Warstwa_2-2" data-name="Warstwa 2">
      <g>
        <g>
          <path class="cls-1" d="M9.77,27.2c3.82,1.35,9.1-.22,13.15-4.27s5.63-9.34,4.27-13.16c-1.25,3.92-6,8.9-7.28,10.15S13.69,26,9.77,27.2Z"/>
          <path class="cls-1" d="M13.43,13.42a2.39,2.39,0,1,0-3.38,0A2.39,2.39,0,0,0,13.43,13.42Z"/>
          <path class="cls-1" d="M12.44,15.64c-.37.4-.74.81-1.08,1.21-.53.62-1,1.23-1.47,1.83a21.5,21.5,0,0,0-2.47,4A7.9,7.9,0,0,0,7,23.93a1.74,1.74,0,0,0,.2,1.67c1.12,1.11,5-.9,9.2-4.61Z"/>
          <path class="cls-1" d="M13.57,14.44l4,5.45c.4-.37.79-.73,1.19-1.12s.75-.79,1.12-1.19l-5.45-4c-.15.14-.3.28-.44.43Z"/>
          <path class="cls-1" d="M23.93,7a8.53,8.53,0,0,0-1.24.44,22,22,0,0,0-4,2.49c-.59.45-1.21.93-1.84,1.47-.39.33-.79.71-1.19,1.07L21,16.38c3.71-4.22,5.72-8.08,4.6-9.19A1.74,1.74,0,0,0,23.93,7Z"/>
        </g>
        <path class="cls-1" d="M15.52,9.1a.82.82,0,0,1-1.16,0A3.72,3.72,0,0,0,9.1,14.36a.82.82,0,0,1,0,1.16.81.81,0,0,1-1.15,0,5.36,5.36,0,0,1,7.57-7.58A.82.82,0,0,1,15.52,9.1Z"/>
        <path class="cls-1" d="M17.67,7a.82.82,0,0,1-1.16,0A6.76,6.76,0,1,0,7,16.52a.81.81,0,0,1,0,1.15.82.82,0,0,1-1.16,0A8.4,8.4,0,0,1,17.67,5.79.82.82,0,0,1,17.67,7Z"/>
        <path class="cls-1" d="M20,4.58a.81.81,0,0,1-1.15,0,10.11,10.11,0,0,0-14.3,14.3A.81.81,0,0,1,3.43,20,11.74,11.74,0,0,1,20,3.43.81.81,0,0,1,20,4.58Z"/>
      </g>
    </g>
  </g>
</svg>
