<svg xmlns="http://www.w3.org/2000/svg" width="27.09" height="32.44" viewBox="0 0 27.09 32.44">
  <defs>
    <style>
      .cls-1 {
        fill: #fff;
      }
    </style>
  </defs>
  <title>Optimized-SPD</title>
  <g id="Warstwa_2" data-name="Warstwa 2">
    <g id="Warstwa_2-2" data-name="Warstwa 2">
      <g>
        <g>
          <polygon class="cls-1" points="13.54 7.8 0 13.04 0 18.06 13.54 12.82 27.09 18.06 27.09 13.04 13.54 7.8"/>
          <polygon class="cls-1" points="13.54 6.12 14.11 6.33 24.86 10.49 24.86 7.89 13.54 3.51 2.23 7.89 2.23 10.49 12.98 6.33 13.54 6.12"/>
          <polygon class="cls-1" points="13.54 1.83 14.11 2.05 22.81 5.41 22.81 3.58 13.54 0 4.28 3.58 4.28 5.41 12.98 2.05 13.54 1.83"/>
        </g>
        <g>
          <polygon class="cls-1" points="16.28 15.56 13.54 32.44 10.8 15.56 13.54 14.5 16.28 15.56"/>
          <polygon class="cls-1" points="8.79 16.34 6.78 25.67 4.9 17.85 8.79 16.34"/>
          <polygon class="cls-1" points="22.18 17.84 20.31 25.53 18.3 16.34 22.18 17.84"/>
        </g>
      </g>
    </g>
  </g>
</svg>
