<svg xmlns="http://www.w3.org/2000/svg" width="37.24" height="34.43" viewBox="0 0 37.24 34.43">
  <defs>
    <style>
      .cls-1 {
        fill: #fff;
      }
    </style>
  </defs>
  <title>pilot</title>
  <g id="Warstwa_2" data-name="Warstwa 2">
    <g id="Warstwa_2-2" data-name="Warstwa 2">
      <g>
        <path class="cls-1" d="M35.35,27.5a9.18,9.18,0,0,1-4.49,1.34c-.35,0-.72,0-1.09,0a24.79,24.79,0,0,1-3.15-.24c-1.4,3.14-6.83,3.3-7.86,3.3h-.3c-1,0-6.43-.16-7.84-3.3a20.72,20.72,0,0,1-4.24.2,9.07,9.07,0,0,1-4.49-1.35A27.09,27.09,0,0,0,0,34.43H37.24A27.36,27.36,0,0,0,35.35,27.5Z"/>
        <path class="cls-1" d="M1.66,25.8a4.68,4.68,0,0,0,.29.37,3.7,3.7,0,0,0,.41.37,7.8,7.8,0,0,0,4.11,1.25,19.16,19.16,0,0,0,3.86-.18v0a5.38,5.38,0,0,1,.69-3c.08-.17.18-.35.28-.52a5.64,5.64,0,0,1,.31-.53,18.08,18.08,0,0,1,1.22-1.73c-3-.44-6.2-1.53-7.52-4.09a7.55,7.55,0,0,0-3.76,4,4.84,4.84,0,0,0,.05,4Z"/>
        <path class="cls-1" d="M24.41,21.77a19.44,19.44,0,0,1,1.22,1.73c.11.17.21.35.31.53s.2.35.29.52a5.54,5.54,0,0,1,.68,3v0a19.16,19.16,0,0,0,3.86.18,7.8,7.8,0,0,0,4.11-1.26,2.83,2.83,0,0,0,.4-.36,2.44,2.44,0,0,0,.3-.37l.06-.1a4.84,4.84,0,0,0,0-4,7.39,7.39,0,0,0-3.58-3.91l-.18-.1C30.61,20.24,27.37,21.33,24.41,21.77Z"/>
        <path class="cls-1" d="M6,16.72a1.34,1.34,0,0,1,.07.18l.15.31c1.21,2.35,4.5,3.26,7.38,3.6.63-.73,1.29-1.42,1.9-2l.43-.41c.14-.15.29-.28.43-.42,1-.95,1.79-1.57,1.89-1.65l.33-.27.33.27c.1.08.87.7,1.89,1.65l.44.42.42.41c.61.6,1.27,1.29,1.9,2,2.88-.34,6.17-1.26,7.38-3.6.05-.1.11-.21.15-.31l.07-.18c.06-.16.12-.33.17-.51,1.57-5-1.62-11.91-4.76-14A14.21,14.21,0,0,0,21.39.29,18.16,18.16,0,0,0,18.62,0c-.05,0-4.69,0-8,2.22-3.13,2.08-6.32,9-4.75,14C5.92,16.39,6,16.56,6,16.72ZM8.73,8.35l.15-.17H28.36l.15.17a8,8,0,0,1,1.7,3.22,7.51,7.51,0,0,1,.28,1.84c0,.12,0,.25,0,.39v.09a5.65,5.65,0,0,1-.18,1.35,2.66,2.66,0,0,1-.16.5s0,0,0,.06-.11.28-.18.43a3.24,3.24,0,0,1-.28.47h0a4.34,4.34,0,0,1-.46.58,4,4,0,0,1-.29.29,7.39,7.39,0,0,1-4.52,1.65h-.29L24,19a9,9,0,0,0-.57-.77L23,17.78c-.13-.14-.26-.29-.4-.42a13.71,13.71,0,0,0-4-2.89,13.91,13.91,0,0,0-4,2.89c-.14.13-.27.28-.4.42l-.36.44a9,9,0,0,0-.57.77l-.15.24h-.29A6.49,6.49,0,0,1,7.56,16.7a4.39,4.39,0,0,1-.27-.47,3.61,3.61,0,0,1-.21-.49,5.69,5.69,0,0,1-.34-1.84A8.24,8.24,0,0,1,8.73,8.35Z"/>
        <path class="cls-1" d="M24.72,24c-.11-.18-.23-.36-.35-.53a19.37,19.37,0,0,0-1.21-1.57c-.13-.17-.28-.33-.42-.5l-.45-.5c-.57-.62-1.16-1.22-1.72-1.76l-.43-.41-.45-.41c-.39-.36-.75-.68-1.07-1-.32.27-.68.59-1.07,1l-.45.41-.43.41c-.56.54-1.15,1.14-1.73,1.76-.15.17-.3.33-.44.5l-.43.5a19.22,19.22,0,0,0-1.2,1.57c-.12.18-.24.35-.35.53l-.32.52a5,5,0,0,0-.82,2.89h0a2,2,0,0,0,.11.51,2.94,2.94,0,0,0,.23.51c1.49,2.49,6.82,2.4,6.88,2.41s5.42.08,6.9-2.41a2.31,2.31,0,0,0,.22-.51,1.73,1.73,0,0,0,.12-.51h0A5,5,0,0,0,25,24.55Z"/>
        <path class="cls-1" d="M8.32,15.91a3.82,3.82,0,0,0,.43.6,5.78,5.78,0,0,0,3.82,1.65c.06-.1.14-.2.21-.3l.35-.43c.12-.15.24-.3.37-.44a14.66,14.66,0,0,1,4.92-3.59l.2-.08.2.08A14.75,14.75,0,0,1,23.75,17l.37.43c.12.14.23.29.34.44a3.3,3.3,0,0,1,.22.3,6.26,6.26,0,0,0,3.53-1.35c.08-.08.16-.15.24-.24l.05-.06a4,4,0,0,0,.3-.39l.13-.2a3.06,3.06,0,0,0,.22-.49h0A3.81,3.81,0,0,0,29.3,15a5.33,5.33,0,0,0,.14-1.1v-.11c0-.12,0-.22,0-.32a7.21,7.21,0,0,0-.25-1.6,7.5,7.5,0,0,0-1.3-2.61H9.36A7.39,7.39,0,0,0,7.8,13.88a4.5,4.5,0,0,0,.29,1.55A2.65,2.65,0,0,0,8.32,15.91Z"/>
      </g>
    </g>
  </g>
</svg>
