<svg xmlns="http://www.w3.org/2000/svg" width="34.58" height="35.09" viewBox="0 0 34.58 35.09">
  <defs>
    <style>
      .cls-1 {
        fill: #fff;
      }
    </style>
  </defs>
  <title>planet</title>
  <g id="Warstwa_2" data-name="Warstwa 2">
    <g id="Warstwa_2-2" data-name="Warstwa 2">
      <g>
        <path class="cls-1" d="M3.52,5.54A18.29,18.29,0,0,1,7.62,2.1a2.92,2.92,0,1,0-4.1,3.44Z"/>
        <path class="cls-1" d="M27.72,31c-1.23,0-1.4,1.82-2.94,1.82a6.32,6.32,0,0,0-3.46.57c-1.06.53-1.14.57-1.15,1.49a17.29,17.29,0,0,0,8.16-3.76l-.09,0A1.72,1.72,0,0,0,27.72,31Z"/>
        <path class="cls-1" d="M34.52,16.32s0-.06,0-.08a2.82,2.82,0,0,1-1.08-.17,1.6,1.6,0,0,0-.67-.2c-.61,0-1,.75-2.79,2.51s-2.85,2.51-3.78,2.51a1.79,1.79,0,0,1-.83-.21,2,2,0,0,0-.78-.11c-1.66,0-5.07.81-7.59.81a7,7,0,0,1-1.43-.12c-2.88-.58.58-2.88-.58-3.46s-1.15-3.45-1.72-5.18,1.72-4,4-6.92S18.44,4,18.44,2.24A4.33,4.33,0,0,0,17.79.52H17.1A17.28,17.28,0,0,0,8.88,2.71l-.57.34-.62.39a17.74,17.74,0,0,0-2.87,2.4l-.5.54c-.15.17-.29.33-.43.51a17,17,0,0,0-1.6,2.32,8.82,8.82,0,0,0-.51,1,2,2,0,0,0,.21.2c1.59,1.25,2.11,1.76,2.16,3.51S3.94,15.47,4,17.57s1.8,2.07.06,3.81-2.11.8-2.76,2.56l-.09.21c.13.32.26.64.41,1A17.41,17.41,0,0,0,10,33.49l.18.07.69.29a2.06,2.06,0,0,0,.67-1.64c0-2.3-2.88-2.88-1.16-5.19s3.46-2.3,4-2.3c.23,0,.55-.09,1-.09a3.44,3.44,0,0,1,2.49,1.24c1.73,1.73,1.15,2.88,2.88,2.88a28.61,28.61,0,0,0,6.91-1.15,15.11,15.11,0,0,1,4.1-.57h.16l.29-.47c.16-.27.29-.51.4-.74a17.05,17.05,0,0,0,2-8C34.58,17.31,34.56,16.81,34.52,16.32Z"/>
        <path class="cls-1" d="M19.69,2.77c.52,1.13,0,1.77-1.5,3.65l-1.14,1.4c-1.4,1.68-3,3.6-2.7,4.43a15.37,15.37,0,0,1,.49,2.15,7,7,0,0,0,.68,2.39,1.5,1.5,0,0,1,.79.92,2.48,2.48,0,0,1-.45,2c-.07.12-.16.28-.23.42l.16,0a6.57,6.57,0,0,0,1.2.1,31.23,31.23,0,0,0,4.37-.46,24.67,24.67,0,0,1,3.22-.35,3,3,0,0,1,1.3.23.64.64,0,0,0,.31.09c.79,0,2.43-1.64,3-2.17s.95-1,1.28-1.35c.84-.9,1.4-1.51,2.32-1.51a2.6,2.6,0,0,1,1.15.32,2.18,2.18,0,0,0,.45.05h0s0,0,0-.06a.14.14,0,0,0,0-.06.5.5,0,0,0,0-.12,2.5,2.5,0,0,0,0-.29,4.82,4.82,0,0,0-.11-.52,3,3,0,0,0-.09-.38L34,13.27c-.07-.26-.15-.5-.23-.75s-.09-.28-.14-.41-.1-.27-.15-.41c-.14-.39-.3-.77-.48-1.15,0,0,0,0,0,0a1.26,1.26,0,0,0-.92-.47c-.59,0-1.35.49-2.74,1.24-2.19,1.2-.68,1-.82,2.26a6,6,0,0,1-1,3.08,2.51,2.51,0,0,1-2.27,1.64A3.17,3.17,0,0,1,24,18c-1.27-.51-2.12-1.37-1.61-2.46s1.13-1.78.69-2.61-1.34-1.43-1.34-3,2.09-1.4,3-4.49A7,7,0,0,0,25,2.31h0a.09.09,0,0,0-.06,0,8,8,0,0,0-.79-.36c-.33-.15-.67-.28-1-.4l-.81-.27-.42-.12L21.42,1,21.19,1,20.7.85l-.29,0c-.23,0-.46-.09-.69-.11L19.13.61h0a3.66,3.66,0,0,1,.47,1.62A1.16,1.16,0,0,0,19.69,2.77Z"/>
        <path class="cls-1" d="M20.75,29.91a2.6,2.6,0,0,1-2.62-1.71,5.6,5.6,0,0,0-1.08-1.51,2.36,2.36,0,0,0-1.67-.91,2.4,2.4,0,0,0-.46,0,4.06,4.06,0,0,1-.51,0c-.47,0-1.73,0-3.11,1.85-.5.65-.42.76.2,1.58a4.66,4.66,0,0,1,1.18,2.91A3.23,3.23,0,0,1,12,34.27h0l.1,0,.09,0,.59.17c.27.08.55.14.83.2a8.44,8.44,0,0,0,.9.16l.29.05.34,0,.27,0,.5,0,.58,0H18l.27,0,.52,0H19c0-1.62.36-2,1.79-2.68a7.41,7.41,0,0,1,4-.69c.25,0,.38-.12.77-.58a2.83,2.83,0,0,1,2.17-1.25,2.78,2.78,0,0,1,.88.16,3.22,3.22,0,0,1,.66.3,14.39,14.39,0,0,0,1.31-1.4l.24-.29c.1-.13.2-.25.29-.38a12.94,12.94,0,0,0-3.07.5A30.28,30.28,0,0,1,20.75,29.91Z"/>
        <path class="cls-1" d="M23.49,9.28c-.53.45-.56.51-.56.64a2.46,2.46,0,0,0,.68,1.68,6,6,0,0,1,.52.79,3,3,0,0,1-.34,3l-.32.62c0,.12,0,.17,0,.19a1.93,1.93,0,0,0,1,.72,2.28,2.28,0,0,0,.79.18c.2,0,.73,0,1.25-1a4.83,4.83,0,0,0,.8-2.34l0-.35v0l-.08-.14A1.67,1.67,0,0,1,27,11.92c.18-.67.75-1.1,1.75-1.64l.62-.34a5.76,5.76,0,0,1,2.67-1h.06l-.2-.32-.15-.23c-.07-.12-.15-.23-.22-.34l-.11-.15-.2-.28c-.1-.14-.21-.27-.32-.41h0l-.33-.41a10.4,10.4,0,0,0-.7-.79.47.47,0,0,1-.1-.1c-.08-.07-.15-.15-.23-.23l-.23-.23-.15-.15c-.05-.06-.11-.1-.16-.16a3,3,0,0,0-.27-.23,2.58,2.58,0,0,0-.36-.31l0,0-.11-.08-.3-.25-.07,0h0l-.34-.26-.16-.11-.16-.11h0c-.17-.12-.33-.24-.5-.34l0,0a.33.33,0,0,1-.1-.06l-.24-.14L26.19,3h0a8.5,8.5,0,0,1-.32,2.76A6.51,6.51,0,0,1,23.49,9.28Z"/>
        <path class="cls-1" d="M3.23,20.57a2.9,2.9,0,0,0,.41-.48,2.39,2.39,0,0,0-.12-.22,4.5,4.5,0,0,1-.68-2.27,14,14,0,0,1,.09-2.19A8.41,8.41,0,0,0,3,13.91c0-1.24-.23-1.47-1.72-2.63a.3.3,0,0,0,0,.1c-.09.2-.16.41-.24.63s-.21.62-.3.93-.13.44-.19.67v.07a14.78,14.78,0,0,0-.32,1.61c0,.28-.07.55-.1.83C0,16.67,0,17.24,0,17.8c0,.2,0,.41,0,.61s0,.34,0,.52,0,.51.07.77,0,.35.07.53,0,.4.09.59.07.4.11.6.09.39.14.58h0l.16.57a2.74,2.74,0,0,1,1.23-1A4.36,4.36,0,0,0,3.23,20.57Z"/>
      </g>
    </g>
  </g>
</svg>
