<svg xmlns="http://www.w3.org/2000/svg" width="33.97" height="40.06" viewBox="0 0 33.97 40.06">
  <defs>
    <style>
      .cls-1 {
        fill: #fff;
      }
    </style>
  </defs>
  <title>speed</title>
  <g id="Warstwa_2" data-name="Warstwa 2">
    <g id="Warstwa_2-2" data-name="Warstwa 2">
      <g>
        <path class="cls-1" d="M0,39.8c2.11.33,6.82.74,10.28-1.39a14.25,14.25,0,0,0,5.23-6.06A49,49,0,0,1,6,31.19,36.58,36.58,0,0,1,0,39.8Z"/>
        <path class="cls-1" d="M13.08,24a23.52,23.52,0,0,1-4.61-.44,40,40,0,0,1-1.93,6.38c0,.06,0,.11-.07.17.5.11,1.24.25,2.13.4,1.26.21,2.84.43,4.47.56a29.18,29.18,0,0,0,2.95.1h.63l.63,0,.56-.05a12.92,12.92,0,0,0,9.73-6.41,8.93,8.93,0,0,0,1.27-6.26A24.5,24.5,0,0,1,13.08,24Z"/>
        <path class="cls-1" d="M32.46,0c-1,2.17-3.91,7-10.57,11.24a28.44,28.44,0,0,1-6.44,3.08A10,10,0,0,0,8.8,22v.06c0,.13,0,.25-.07.36l.57.11c.42.07.94.14,1.56.2a23.66,23.66,0,0,0,15.72-4.07c.41-.29.82-.59,1.23-.92s.62-.5.93-.77l.1-.1C36.35,10.16,33.77,2.69,32.46,0Z"/>
      </g>
    </g>
  </g>
</svg>
