<svg xmlns="http://www.w3.org/2000/svg" width="39.69" height="46.22" viewBox="0 0 39.69 46.22">
  <defs>
    <style>
      .cls-1 {
        fill: #fff;
      }

      .cls-2 {
        fill: #39b54a;
      }

      .cls-3 {
        fill: #29abe2;
      }
    </style>
  </defs>
  <title>subspaceshield</title>
  <g id="Warstwa_2" data-name="Warstwa 2">
    <g id="Warstwa_2-2" data-name="Warstwa 2">
      <g>
        <path class="cls-1" d="M5.29,28.75A73.16,73.16,0,0,0,9.1,20.61,42,42,0,0,0,4.23,17.1a.79.79,0,0,1-.37-.84.8.8,0,0,1,.65-.64,21.1,21.1,0,0,1,5.16-.31,12.7,12.7,0,0,1,3.54-8c.61-.64,1.15-1.27,1.64-1.89L14,4.35a21.08,21.08,0,0,1-6.6,4.22A13.92,13.92,0,0,1,0,8.85V20.7A8.09,8.09,0,0,0,5.29,28.75Z"/>
        <path class="cls-1" d="M32.27,8.57a21.08,21.08,0,0,1-6.6-4.22L24.84,5.4c.49.62,1,1.25,1.64,1.89a12.7,12.7,0,0,1,3.54,8,20.66,20.66,0,0,1,5.16.31.8.8,0,0,1,.65.64.79.79,0,0,1-.37.84,41.71,41.71,0,0,0-4.88,3.51,82.17,82.17,0,0,0,3.81,8.14,8.07,8.07,0,0,0,5.3-8V8.85A13.92,13.92,0,0,1,32.27,8.57Z"/>
        <path class="cls-1" d="M11.27,15.54a8.64,8.64,0,0,1,2.72,1,4.82,4.82,0,0,1,.69.47l.1.09a8.21,8.21,0,0,1,.9-.51,10,10,0,0,1,4.18-1,9.61,9.61,0,0,1,4.15,1,6.74,6.74,0,0,1,.9.5L25,17a5,5,0,0,1,.7-.47,8.55,8.55,0,0,1,2.72-1,11.14,11.14,0,0,0-3.1-7.14c-.55-.58-1.05-1.14-1.51-1.7-.17-.22-.34-.43-.5-.65S23,5.6,22.8,5.39a23.19,23.19,0,0,1-3-5.39,23.27,23.27,0,0,1-2.95,5.39c-.16.21-.33.44-.51.66s-.33.43-.51.65c-.45.56-.95,1.12-1.5,1.7A11.14,11.14,0,0,0,11.27,15.54Z"/>
        <path class="cls-1" d="M32,33.85a.81.81,0,0,1-.41-1.14L32.5,31,33,30l.13-.24-.29-.54c-.83-1.58-2.44-4.74-3.51-7.45l-.16.18a14.59,14.59,0,0,1,.51,8.28c-.07.32-.16.64-.26,1A15.22,15.22,0,0,1,28,34.5c1,.9,2.83,2.78,2.34,4.39a3.57,3.57,0,0,1-.83,1.23l1.15,1.7h8C38.07,39.87,36.28,35.47,32,33.85Z"/>
        <path class="cls-1" d="M9.36,38.89c-.49-1.61,1.31-3.49,2.33-4.39a16.29,16.29,0,0,1-1.43-3.26c-.09-.33-.18-.65-.25-1A14.59,14.59,0,0,1,10.52,22l-.16-.18c-1.07,2.71-2.68,5.87-3.51,7.45l-.29.54.13.24.5.93,1,1.74a.83.83,0,0,1,0,.67.81.81,0,0,1-.47.47c-4.33,1.63-6.1,6-6.69,8H9l1.15-1.7A3.67,3.67,0,0,1,9.36,38.89Z"/>
        <path class="cls-1" d="M13.19,42.62c-.39-.26-.75-.53-1.09-.8s-.5-.39-.74-.58l-.39.58-.54.8-.54.81-.25.35h4.22a.78.78,0,0,1,.63.31.82.82,0,0,1,.15.69l-.37,1.44h2.28l.59-1.28a28.33,28.33,0,0,1-2.74-1.51C14,43.17,13.58,42.9,13.19,42.62Z"/>
        <path class="cls-1" d="M29.26,42.62l-.55-.8-.39-.58-.73.58c-.34.27-.71.54-1.09.8s-.8.55-1.21.81a27.3,27.3,0,0,1-2.75,1.51l.6,1.28h2.27l-.36-1.44a.79.79,0,0,1,.15-.69.78.78,0,0,1,.63-.31H30l-.24-.35Z"/>
        <path class="cls-1" d="M24.69,41.91l.15-.09c.95-.64,1.86-1.32,2.57-1.91.23-.2.44-.38.62-.55a6.59,6.59,0,0,0,.55-.6,1,1,0,0,0,.2-.33c.19-.62-1.07-2.14-2.33-3.12a.82.82,0,0,1-.18-1.07,13.07,13.07,0,0,0,2.17-7.48h0a12,12,0,0,0-.93-4.57.82.82,0,0,1,0-.58h0a.94.94,0,0,1,.13-.24,10.32,10.32,0,0,1,1.12-1.23c.21-.21.43-.41.65-.6l.68-.58c.92-.76,1.9-1.46,2.72-2a15.58,15.58,0,0,0-2.74,0c-.29,0-.57.05-.82.09s-.57.11-.82.17a6.39,6.39,0,0,0-2.16.93,2.72,2.72,0,0,0-.58.52l-.06.07a.79.79,0,0,1-.48.26.88.88,0,0,1-.28,0,.69.69,0,0,1-.33-.14,8.12,8.12,0,0,0-4.66-1.6,8.23,8.23,0,0,0-4.68,1.6.73.73,0,0,1-.32.15,1.41,1.41,0,0,1-.29,0,.78.78,0,0,1-.47-.26.31.31,0,0,1-.07-.09,3.32,3.32,0,0,0-.58-.51,6.69,6.69,0,0,0-2.15-.91c-.25-.07-.53-.12-.82-.17l-.81-.11a16.74,16.74,0,0,0-2.75,0c.82.56,1.8,1.27,2.73,2h0l.66.56c.23.2.45.4.65.61a10.45,10.45,0,0,1,1.13,1.23.94.94,0,0,1,.13.24h0a.83.83,0,0,1,0,.6,12.16,12.16,0,0,0-.93,4.56,15,15,0,0,0,.13,2,13.55,13.55,0,0,0,2,5.43.81.81,0,0,1-.17,1.07c-1.26,1-2.53,2.5-2.33,3.12a1,1,0,0,0,.2.33,6.59,6.59,0,0,0,.55.6c.18.17.39.35.61.54a29.62,29.62,0,0,0,2.59,1.92l.12.08c.38.26.77.5,1.16.72s1,.58,1.46.81a9.2,9.2,0,0,0,.88.39,6.09,6.09,0,0,0,.83.27,2.08,2.08,0,0,0,1.07,0,6.09,6.09,0,0,0,.83-.27c.27-.1.57-.24.88-.39.46-.23,1-.5,1.46-.81S24.31,42.16,24.69,41.91Zm-.39-2.82a.85.85,0,0,1-.38.69l-3.26,2-.39.25a.82.82,0,0,1-.43.12.81.81,0,0,1-.42-.12l-.4-.25-3.25-2a.85.85,0,0,1-.38-.69V33.64A.79.79,0,0,1,15.8,33a.8.8,0,0,1,.82,0l3.22,2,3.23-2a.8.8,0,0,1,.82,0,.79.79,0,0,1,.41.69Zm-4.46-18.8a6,6,0,1,1-6,5.95A6,6,0,0,1,19.84,20.29Z"/>
        <path class="cls-2" d="M19.43,36.58,17,35.08v3.57l2.84,1.79,2.85-1.79V35.08l-2.43,1.5A.78.78,0,0,1,19.43,36.58Z"/>
        <path class="cls-3" d="M19.84,30.6a4.36,4.36,0,1,0-4.35-4.36A4.36,4.36,0,0,0,19.84,30.6Z"/>
      </g>
    </g>
  </g>
</svg>
