<svg xmlns="http://www.w3.org/2000/svg" width="38.72" height="55.9" viewBox="0 0 38.72 55.9">
  <defs>
    <style>
      .cls-1 {
        fill: #fff;
      }

      .cls-2 {
        fill: #ed1c24;
      }

      .cls-3 {
        fill: #fbb03b;
      }
    </style>
  </defs>
  <title>supernovabattleaxe</title>
  <g id="Warstwa_2" data-name="Warstwa 2">
    <g id="Warstwa_2-2" data-name="Warstwa 2">
      <g>
        <path class="cls-1" d="M10,12.19C9.24,8.52,11.29,2.94,12.55,0,8.6,2.19-.23,8.86,0,24.65c.12,7.93,1.91,13.6,5.34,16.86a9.59,9.59,0,0,0,4.91,2.58c-.92-3.37-3.26-13.48.14-19.42A13.51,13.51,0,0,1,14,20.33V15.89a6.35,6.35,0,0,1-2.13-.83A4.25,4.25,0,0,1,10,12.19Z"/>
        <path class="cls-1" d="M26.17,0c1.26,2.94,3.31,8.52,2.59,12.19a4.24,4.24,0,0,1-1.94,2.87,6.27,6.27,0,0,1-2.13.83v4.44a13.64,13.64,0,0,1,3.64,4.34c3.4,5.94,1.06,16,.13,19.41a9.72,9.72,0,0,0,4.95-2.6c3.4-3.26,5.19-8.93,5.3-16.83C38.94,8.86,30.12,2.19,26.17,0Z"/>
        <path class="cls-1" d="M21.18,41.92H17.54L16.45,54.45A1.45,1.45,0,0,0,17.9,55.9h2.92a1.45,1.45,0,0,0,1.45-1.45Z"/>
        <path class="cls-1" d="M21,30.78h.14V25.08H17.54v5.71H21Z"/>
        <path class="cls-2" d="M21,10.35H17.68c-1.16,0-2.1,3.05-2.11,4.2v6.89A2.08,2.08,0,0,0,16,22.72a2.12,2.12,0,0,0,.77.62,1.83,1.83,0,0,0,.77.2h3.64a1.87,1.87,0,0,0,.77-.2,2,2,0,0,0,.77-.62,2.08,2.08,0,0,0,.43-1.28V14.55C23.13,13.4,22.19,10.35,21,10.35Z"/>
        <path class="cls-3" d="M22,32.54a1.88,1.88,0,0,0-.77-.21H17.54a2,2,0,0,0-.77.2,2.1,2.1,0,0,0-.77.62,2.13,2.13,0,0,0-.43,1.29v3.84A2.1,2.1,0,0,0,16,39.56a2.12,2.12,0,0,0,.77.63,2.19,2.19,0,0,0,.77.2h3.64a2.25,2.25,0,0,0,.77-.2,2.35,2.35,0,0,0,.77-.63,2.1,2.1,0,0,0,.43-1.28V34.44a2.13,2.13,0,0,0-.43-1.29A2.17,2.17,0,0,0,22,32.54Z"/>
      </g>
    </g>
  </g>
</svg>
